<?xml version="1.0" encoding="UTF-8" standalone="no"?>
<svg
   xmlns:dc="http://purl.org/dc/elements/1.1/"
   xmlns:cc="http://creativecommons.org/ns#"
   xmlns:rdf="http://www.w3.org/1999/02/22-rdf-syntax-ns#"
   xmlns:svg="http://www.w3.org/2000/svg"
   xmlns="http://www.w3.org/2000/svg"
   xmlns:sodipodi="http://sodipodi.sourceforge.net/DTD/sodipodi-0.dtd"
   xmlns:inkscape="http://www.inkscape.org/namespaces/inkscape"
   version="1.1"
   id="Layer_1"
   x="0px"
   y="0px"
   viewBox="0 0 512 512"
   xml:space="preserve"
   sodipodi:docname="InterstelLogo.svg"
   inkscape:version="1.0.2 (e86c870879, 2021-01-15, custom)"
   inkscape:export-filename="C:\Users\marvi\Documents\GitHub\StarflightHDRP\Assets\Art\Textures\Interstel\InterstelLogo.png"
   inkscape:export-xdpi="96"
   inkscape:export-ydpi="96"
   width="512"
   height="512"><metadata
   id="metadata17"><rdf:RDF><cc:Work
       rdf:about=""><dc:format>image/svg+xml</dc:format><dc:type
         rdf:resource="http://purl.org/dc/dcmitype/StillImage" /><dc:title></dc:title></cc:Work></rdf:RDF></metadata><defs
   id="defs15">
	
	
</defs><sodipodi:namedview
   pagecolor="#ffffff"
   bordercolor="#666666"
   borderopacity="1"
   objecttolerance="10"
   gridtolerance="10"
   guidetolerance="10"
   inkscape:pageopacity="0"
   inkscape:pageshadow="2"
   inkscape:window-width="3440"
   inkscape:window-height="1387"
   id="namedview13"
   showgrid="false"
   inkscape:zoom="1.8666667"
   inkscape:cx="258.21429"
   inkscape:cy="270"
   inkscape:window-x="-8"
   inkscape:window-y="-8"
   inkscape:window-maximized="1"
   inkscape:current-layer="Layer_1"
   inkscape:document-rotation="0" />
<style
   type="text/css"
   id="style2">
	.st0{display:none;fill:#B3B4B4;}
	.st1{display:none;fill:#505150;}
	.st2{fill:#505150;}
	.st3{display:none;fill:#FFFFFF;}
</style>


<path
   class="st2"
   d="m 147.10187,415.701 c -8.80652,0 -17.70773,-2.08327 -25.66201,-6.0604 L 36.026105,367.2178 C 28.5453,363.52474 24,356.04394 24,347.80559 V 270.3461 h 92.89456 v 51.22931 c 0,2.17796 1.23102,4.16654 3.21959,5.11347 l 20.16977,9.84815 c 1.89387,0.94694 4.07183,1.42041 6.24979,1.42041 h 45.92646 c 3.21959,0 5.77631,-2.55674 5.77631,-5.77632 V 179.81888 c 0,-3.21958 -2.55672,-5.77632 -5.77631,-5.77632 h -45.92646 c -2.17796,0 -4.26123,0.47347 -6.24979,1.42041 l -20.16977,9.84814 c -1.89387,0.94694 -3.21959,2.93552 -3.21959,5.11347 V 241.6539 H 24 v -77.45949 c 0,-8.33304 4.639993,-15.71915 12.026105,-19.41221 l 85.413755,-42.4228 c 7.95428,-3.97714 16.7608,-6.0604 25.66201,-6.0604 h 217.79561 c 8.80652,0 17.70772,2.08326 25.662,6.0604 l 85.41376,42.4228 c 7.4808,3.69306 12.02611,11.17386 12.02611,19.41221 v 77.45949 h -92.89456 v -51.22932 c 0,-2.17795 -1.23102,-4.16653 -3.2196,-5.11347 l -20.16976,-9.84814 c -1.89388,-0.94694 -4.07183,-1.42041 -6.24979,-1.42041 h -45.92647 c -3.21958,0 -5.77631,2.55674 -5.77631,5.77632 v 152.36224 c 0,3.21958 2.55673,5.77632 5.77631,5.77632 h 45.92647 c 2.17796,0 4.26122,-0.47347 6.24979,-1.42041 l 20.16976,-9.84815 c 1.89388,-0.94693 3.2196,-2.93551 3.2196,-5.11347 V 270.3461 h 92.89456 v 77.45949 c 0,8.33304 -4.64,15.71915 -12.02611,19.41221 l -85.41376,42.4228 c -7.95428,3.97713 -16.76079,6.0604 -25.662,6.0604 z"
   id="path6"
   style="display:inline;fill:#555555;fill-opacity:1;stroke-width:0.946938;stroke:none" /><path
   d="m 362.72,104.133 c 7.9808,0 15.8688,1.856 23.0144,5.3824 l 83.70561,41.6672 c 5.66079,2.784 9.28,8.6304 9.28,14.9408 v 71.2704 h -81.7568 V 191.829 c 0,-3.8976 -2.22721,-7.424 -5.75361,-9.1872 l -19.7664,-9.6512 c -2.5056,-1.2064 -5.28959,-1.85599 -8.1664,-1.85599 h -45.008 c -5.6608,0 -10.3008,4.63999 -10.3008,10.30079 v 149.3152 c 0,5.6608 4.64,10.3008 10.3008,10.3008 h 45.008 c 2.78401,0 5.568,-0.64959 8.1664,-1.85599 l 19.7664,-9.65121 c 3.5264,-1.6704 5.75361,-5.28959 5.75361,-9.1872 v -45.5648 h 81.7568 v 71.2704 c 0,6.3104 -3.61921,12.064 -9.28,14.9408 l -83.70561,41.5744 c -7.1456,3.5264 -15.0336,5.3824 -23.0144,5.3824 H 149.28 c -7.9808,0 -15.8688,-1.856 -23.0144,-5.3824 L 42.56,360.9106 c -5.6608,-2.784 -9.28,-8.6304 -9.28,-14.9408 v -71.2704 h 81.7568 v 45.5648 c 0,3.89761 2.2272,7.424 5.7536,9.1872 l 19.76641,9.65121 c 2.50559,1.2064 5.28959,1.85599 8.1664,1.85599 h 45.00799 c 5.6608,0 10.3008,-4.64 10.3008,-10.3008 V 181.4354 c 0,-5.6608 -4.64,-10.30079 -10.3008,-10.30079 h -45.00799 c -2.78401,0 -5.56801,0.64959 -8.1664,1.85599 l -19.76641,9.6512 c -3.5264,1.6704 -5.7536,5.2896 -5.7536,9.1872 v 45.5648 H 33.28 v -71.2704 c 0,-6.3104 3.6192,-12.064 9.28,-14.9408 l 83.7056,-41.5744 c 7.1456,-3.5264 15.0336,-5.3824 23.0144,-5.3824 h 213.44 m 0,-9.3728 H 149.28 c -9.3728,0 -18.7456,2.2272 -27.1904,6.4032 L 38.384,142.8306 C 29.4752,147.285 24,156.101 24,166.0306 v 71.2704 9.28 h 9.28 81.7568 9.28001 v -9.28 -45.5648 c 0,-0.3712 0.1856,-0.6496 0.55679,-0.8352 l 19.7664,-9.6512 c 1.2992,-0.6496 2.6912,-0.928 4.08321,-0.928 h 45.00799 c 0.5568,0 1.0208,0.464 1.0208,1.0208 v 149.3152 c 0,0.55681 -0.464,1.02081 -1.0208,1.02081 h -45.00799 c -1.39201,0 -2.78401,-0.3712 -4.08321,-0.92801 l -19.7664,-9.6512 c -0.27839,-0.1856 -0.55679,-0.464 -0.55679,-0.8352 v -45.5648 -9.28 H 115.0368 33.28 24 v 9.28 71.2704 c 0,9.92961 5.4752,18.8384 14.384,23.2 l 83.7056,41.5744 c 8.352,4.176 17.8176,6.4032 27.1904,6.4032 h 213.44 c 9.3728,0 18.74561,-2.2272 27.19041,-6.4032 L 473.616,369.1698 c 8.9088,-4.45439 14.384,-13.27039 14.384,-23.2 v -71.2704 -9.28 h -9.27999 -81.7568 -9.28001 v 9.28 45.5648 c 0,0.3712 -0.1856,0.6496 -0.5568,0.8352 l -19.7664,9.744 c -1.29919,0.64961 -2.69119,0.92801 -4.0832,0.92801 h -45.008 c -0.55679,0 -1.02079,-0.464 -1.02079,-1.02081 V 181.4354 c 0,-0.5568 0.464,-1.0208 1.02079,-1.0208 h 45.008 c 1.39201,0 2.78401,0.3712 4.0832,0.928 l 19.7664,9.6512 c 0.2784,0.1856 0.5568,0.464 0.5568,0.8352 v 45.5648 9.28 h 9.28001 81.7568 H 488 v -9.28 -71.2704 c 0,-9.9296 -5.4752,-18.8384 -14.384,-23.2 L 389.91041,101.349 C 381.46561,97.0802 372.0928,94.853 362.72,94.853 Z"
   id="path8"
   style="display:inline;fill:#000000;fill-opacity:1;stroke:none;stroke-width:0.928;stroke-opacity:1"
   inkscape:export-filename="C:\Users\marvi\Documents\GitHub\StarflightHDRP\Assets\Art\Textures\Interstel\InterstelLogo.png"
   inkscape:export-xdpi="96"
   inkscape:export-ydpi="96" />

</svg>
