<?xml version="1.0" encoding="UTF-8" standalone="no"?>
<svg
   xmlns:dc="http://purl.org/dc/elements/1.1/"
   xmlns:cc="http://creativecommons.org/ns#"
   xmlns:rdf="http://www.w3.org/1999/02/22-rdf-syntax-ns#"
   xmlns:svg="http://www.w3.org/2000/svg"
   xmlns="http://www.w3.org/2000/svg"
   xmlns:sodipodi="http://sodipodi.sourceforge.net/DTD/sodipodi-0.dtd"
   xmlns:inkscape="http://www.inkscape.org/namespaces/inkscape"
   version="1.1"
   id="Layer_1"
   x="0px"
   y="0px"
   viewBox="0 0 512 512"
   xml:space="preserve"
   sodipodi:docname="InterstelLogoOutline.svg"
   inkscape:version="1.0.2 (e86c870879, 2021-01-15, custom)"
   inkscape:export-filename="C:\Users\marvi\Documents\GitHub\StarflightHDRP\Assets\Art\Textures\Interstel\InterstelLogoOutline.png"
   inkscape:export-xdpi="96"
   inkscape:export-ydpi="96"
   width="512"
   height="512"><metadata
   id="metadata17"><rdf:RDF><cc:Work
       rdf:about=""><dc:format>image/svg+xml</dc:format><dc:type
         rdf:resource="http://purl.org/dc/dcmitype/StillImage" /><dc:title></dc:title></cc:Work></rdf:RDF></metadata><defs
   id="defs15">
	
	
</defs><sodipodi:namedview
   pagecolor="#ffffff"
   bordercolor="#666666"
   borderopacity="1"
   objecttolerance="10"
   gridtolerance="10"
   guidetolerance="10"
   inkscape:pageopacity="0"
   inkscape:pageshadow="2"
   inkscape:window-width="3440"
   inkscape:window-height="1387"
   id="namedview13"
   showgrid="false"
   inkscape:zoom="1.8666667"
   inkscape:cx="258.21429"
   inkscape:cy="270"
   inkscape:window-x="-8"
   inkscape:window-y="-8"
   inkscape:window-maximized="1"
   inkscape:current-layer="Layer_1"
   inkscape:document-rotation="0" />
<style
   type="text/css"
   id="style2">
	.st0{display:none;fill:#B3B4B4;}
	.st1{display:none;fill:#505150;}
	.st2{fill:#505150;}
	.st3{display:none;fill:#FFFFFF;}
</style>


<path
   d="m 362.72,104.133 c 7.9808,0 15.8688,1.856 23.0144,5.3824 l 83.7056,41.6672 c 5.6608,2.784 9.28,8.6304 9.28,14.9408 v 71.2704 H 396.9632 V 191.829 c 0,-3.8976 -2.2272,-7.424 -5.7536,-9.1872 l -19.7664,-9.6512 c -2.5056,-1.2064 -5.2896,-1.856 -8.1664,-1.856 h -45.008 c -5.6608,0 -10.3008,4.64 -10.3008,10.3008 v 149.3152 c 0,5.6608 4.64,10.3008 10.3008,10.3008 h 45.008 c 2.784,0 5.568,-0.6496 8.1664,-1.856 l 19.7664,-9.6512 c 3.5264,-1.6704 5.7536,-5.2896 5.7536,-9.1872 V 274.7922 H 478.72 v 71.2704 c 0,6.3104 -3.6192,12.064 -9.28,14.9408 l -83.7056,41.5744 c -7.1456,3.5264 -15.0336,5.3824 -23.0144,5.3824 H 149.28 c -7.9808,0 -15.8688,-1.856 -23.0144,-5.3824 L 42.56,360.9106 c -5.6608,-2.784 -9.28,-8.6304 -9.28,-14.9408 v -71.2704 h 81.7568 v 45.5648 c 0,3.8976 2.2272,7.424 5.7536,9.1872 l 19.7664,9.6512 c 2.5056,1.2064 5.2896,1.856 8.1664,1.856 h 45.008 c 5.6608,0 10.3008,-4.64 10.3008,-10.3008 V 181.4354 c 0,-5.6608 -4.64,-10.3008 -10.3008,-10.3008 h -45.008 c -2.784,0 -5.568,0.6496 -8.1664,1.856 l -19.7664,9.6512 c -3.5264,1.6704 -5.7536,5.2896 -5.7536,9.1872 v 45.5648 H 33.28 v -71.2704 c 0,-6.3104 3.6192,-12.064 9.28,-14.9408 l 83.7056,-41.5744 c 7.1456,-3.5264 15.0336,-5.3824 23.0144,-5.3824 h 213.44 m 0,-9.3728 H 149.28 c -9.3728,0 -18.7456,2.2272 -27.1904,6.4032 L 38.384,142.8306 C 29.4752,147.285 24,156.101 24,166.0306 v 71.2704 9.28 h 9.28 81.7568 9.28 v -9.28 -45.5648 c 0,-0.3712 0.1856,-0.6496 0.5568,-0.8352 l 19.7664,-9.6512 c 1.2992,-0.6496 2.6912,-0.928 4.0832,-0.928 h 45.008 c 0.5568,0 1.0208,0.464 1.0208,1.0208 v 149.3152 c 0,0.5568 -0.464,1.0208 -1.0208,1.0208 h -45.008 c -1.392,0 -2.784,-0.3712 -4.0832,-0.928 l -19.7664,-9.6512 c -0.2784,-0.1856 -0.5568,-0.464 -0.5568,-0.8352 v -45.5648 -9.28 h -9.28 H 33.28 24 v 9.28 71.2704 c 0,9.9296 5.4752,18.8384 14.384,23.2 l 83.7056,41.5744 c 8.352,4.176 17.8176,6.4032 27.1904,6.4032 h 213.44 c 9.3728,0 18.7456,-2.2272 27.1904,-6.4032 l 83.7056,-41.5744 c 8.9088,-4.4544 14.384,-13.2704 14.384,-23.2 v -71.2704 -9.28 h -9.28 -81.7568 -9.28 v 9.28 45.5648 c 0,0.3712 -0.1856,0.6496 -0.5568,0.8352 l -19.7664,9.744 c -1.2992,0.6496 -2.6912,0.928 -4.0832,0.928 h -45.008 c -0.5568,0 -1.0208,-0.464 -1.0208,-1.0208 V 181.4354 c 0,-0.5568 0.464,-1.0208 1.0208,-1.0208 h 45.008 c 1.392,0 2.784,0.3712 4.0832,0.928 l 19.7664,9.6512 c 0.2784,0.1856 0.5568,0.464 0.5568,0.8352 v 45.5648 9.28 h 9.28 81.7568 9.28 v -9.28 -71.2704 c 0,-9.9296 -5.4752,-18.8384 -14.384,-23.2 L 389.9104,101.349 C 381.4656,97.0802 372.0928,94.853 362.72,94.853 Z"
   id="path8"
   style="display:inline;fill:#ffffff;fill-opacity:1;stroke:none;stroke-width:0.928;stroke-miterlimit:4;stroke-dasharray:none;stroke-opacity:1"
   inkscape:export-filename="C:\Users\marvi\Documents\GitHub\StarflightHDRP\Assets\Art\Textures\Interstel\InterstelLogo.png"
   inkscape:export-xdpi="96"
   inkscape:export-ydpi="96" />

</svg>
