<?xml version="1.0" encoding="UTF-8" standalone="no"?>
<svg
   xmlns:dc="http://purl.org/dc/elements/1.1/"
   xmlns:cc="http://creativecommons.org/ns#"
   xmlns:rdf="http://www.w3.org/1999/02/22-rdf-syntax-ns#"
   xmlns:svg="http://www.w3.org/2000/svg"
   xmlns="http://www.w3.org/2000/svg"
   xmlns:sodipodi="http://sodipodi.sourceforge.net/DTD/sodipodi-0.dtd"
   xmlns:inkscape="http://www.inkscape.org/namespaces/inkscape"
   version="1.1"
   id="Layer_1"
   x="0px"
   y="0px"
   viewBox="0 0 512 512"
   xml:space="preserve"
   sodipodi:docname="InterstelLogoSolid.svg"
   inkscape:version="1.0.2 (e86c870879, 2021-01-15, custom)"
   inkscape:export-filename="C:\Users\marvi\Documents\GitHub\StarflightHDRP\Assets\Art\Textures\Interstel\InterstelLogoSolid.png"
   inkscape:export-xdpi="96"
   inkscape:export-ydpi="96"
   width="512"
   height="512"><metadata
   id="metadata17"><rdf:RDF><cc:Work
       rdf:about=""><dc:format>image/svg+xml</dc:format><dc:type
         rdf:resource="http://purl.org/dc/dcmitype/StillImage" /><dc:title></dc:title></cc:Work></rdf:RDF></metadata><defs
   id="defs15">
	
	
</defs><sodipodi:namedview
   pagecolor="#ffffff"
   bordercolor="#666666"
   borderopacity="1"
   objecttolerance="10"
   gridtolerance="10"
   guidetolerance="10"
   inkscape:pageopacity="0"
   inkscape:pageshadow="2"
   inkscape:window-width="3440"
   inkscape:window-height="1387"
   id="namedview13"
   showgrid="false"
   inkscape:zoom="1.8666667"
   inkscape:cx="258.21429"
   inkscape:cy="270"
   inkscape:window-x="-8"
   inkscape:window-y="-8"
   inkscape:window-maximized="1"
   inkscape:current-layer="Layer_1"
   inkscape:document-rotation="0" />
<style
   type="text/css"
   id="style2">
	.st0{display:none;fill:#B3B4B4;}
	.st1{display:none;fill:#505150;}
	.st2{fill:#505150;}
	.st3{display:none;fill:#FFFFFF;}
</style>


<path
   class="st2"
   d="m 147.10187,415.701 c -8.80652,0 -17.70773,-2.08327 -25.66201,-6.0604 L 36.026105,367.2178 C 28.5453,363.52474 24,356.04394 24,347.80559 V 270.3461 h 92.89456 v 51.22931 c 0,2.17796 1.23102,4.16654 3.21959,5.11347 l 20.16977,9.84815 c 1.89387,0.94694 4.07183,1.42041 6.24979,1.42041 h 45.92646 c 3.21959,0 5.77631,-2.55674 5.77631,-5.77632 V 179.81888 c 0,-3.21958 -2.55672,-5.77632 -5.77631,-5.77632 h -45.92646 c -2.17796,0 -4.26123,0.47347 -6.24979,1.42041 l -20.16977,9.84814 c -1.89387,0.94694 -3.21959,2.93552 -3.21959,5.11347 V 241.6539 H 24 v -77.45949 c 0,-8.33304 4.639993,-15.71915 12.026105,-19.41221 l 85.413755,-42.4228 c 7.95428,-3.97714 16.7608,-6.0604 25.66201,-6.0604 h 217.79561 c 8.80652,0 17.70772,2.08326 25.662,6.0604 l 85.41376,42.4228 c 7.4808,3.69306 12.02611,11.17386 12.02611,19.41221 v 77.45949 h -92.89456 v -51.22932 c 0,-2.17795 -1.23102,-4.16653 -3.2196,-5.11347 l -20.16976,-9.84814 c -1.89388,-0.94694 -4.07183,-1.42041 -6.24979,-1.42041 h -45.92647 c -3.21958,0 -5.77631,2.55674 -5.77631,5.77632 v 152.36224 c 0,3.21958 2.55673,5.77632 5.77631,5.77632 h 45.92647 c 2.17796,0 4.26122,-0.47347 6.24979,-1.42041 l 20.16976,-9.84815 c 1.89388,-0.94693 3.2196,-2.93551 3.2196,-5.11347 V 270.3461 h 92.89456 v 77.45949 c 0,8.33304 -4.64,15.71915 -12.02611,19.41221 l -85.41376,42.4228 c -7.95428,3.97713 -16.76079,6.0604 -25.662,6.0604 z"
   id="path6"
   style="display:inline;fill:#ffffff;fill-opacity:1;stroke-width:1;stroke:none;stroke-miterlimit:4;stroke-dasharray:none" />

</svg>
