<?xml version="1.0" encoding="UTF-8" standalone="no"?>
<svg
   xmlns:dc="http://purl.org/dc/elements/1.1/"
   xmlns:cc="http://creativecommons.org/ns#"
   xmlns:rdf="http://www.w3.org/1999/02/22-rdf-syntax-ns#"
   xmlns:svg="http://www.w3.org/2000/svg"
   xmlns="http://www.w3.org/2000/svg"
   xmlns:sodipodi="http://sodipodi.sourceforge.net/DTD/sodipodi-0.dtd"
   xmlns:inkscape="http://www.inkscape.org/namespaces/inkscape"
   version="1.1"
   id="Layer_1"
   x="0px"
   y="0px"
   viewBox="0 0 512 512"
   style="enable-background:new 0 0 512 512;"
   xml:space="preserve"
   sodipodi:docname="Android.svg"
   inkscape:export-filename="C:\Users\marvi\Documents\GitHub\StarflightHDRP\Assets\Art\Textures\Personnel\Android.png"
   inkscape:export-xdpi="96"
   inkscape:export-ydpi="96"
   inkscape:version="1.0.2 (e86c870879, 2021-01-15, custom)"><metadata
   id="metadata847"><rdf:RDF><cc:Work
       rdf:about=""><dc:format>image/svg+xml</dc:format><dc:type
         rdf:resource="http://purl.org/dc/dcmitype/StillImage" /><dc:title></dc:title></cc:Work></rdf:RDF></metadata><defs
   id="defs845" /><sodipodi:namedview
   pagecolor="#ffffff"
   bordercolor="#666666"
   borderopacity="1"
   objecttolerance="10"
   gridtolerance="10"
   guidetolerance="10"
   inkscape:pageopacity="0"
   inkscape:pageshadow="2"
   inkscape:window-width="3440"
   inkscape:window-height="1387"
   id="namedview843"
   showgrid="false"
   inkscape:zoom="1.3339844"
   inkscape:cx="256"
   inkscape:cy="256"
   inkscape:window-x="-8"
   inkscape:window-y="-8"
   inkscape:window-maximized="1"
   inkscape:current-layer="Layer_1" />
<path
   id="Android"
   d="M383.5,210.1c-3.9,3.9-7.8,7.8-11.8,11.8c-2.3,2.3-3.7,4.9-3.3,8.4c3.9,5.2,11.2,6,15.1,11.6  c2.1,6.1,2.4,12.6,0.1,18.9c-2.5,2.5-5.1,5.1-7.1,7.1c-2.3,8.2-2.6,15.5-0.1,23.4c2.7,2.6,6.2,5,10.1,6.7c6.2,2.6,9,7.3,8.8,14  c-0.1,2.6-0.2,5.2,0,7.7c0.4,4.1-1,7.3-4,9.9c-0.6,0.6-1.2,1.2-1.8,1.8c-3.2-0.3-6.5,0.4-8.6,2.4c-1.7,1.7-3.6,3.6-4.6,5.7  c-1.6,3.4-4.2,5.4-7.6,7.1c-2,0-4.3,0-6.7,0c-0.9-6.5,1.5-13.6-3.8-19.7c-3.6,2.8-6.4,6.3-9.8,9.3c-2.6-0.3-4.7,2.5-7.8,1.3  c-1,3.6-4.7,5.1-5.6,8.6c-1.7,6.5,3.2,9.8,6.9,13.6c2.1,4,1.9,8.4,1.8,12.8c-0.1,3.5-0.9,6.8-3.6,9.4c-2.1,2.1-3.4,4.7-2.7,8  c3.9,5,11.1,5.9,15.2,11.6c0,2.6,0,5.6,0,8.4c-2.6,2.6-5.2,5.2-6.5,6.5c-3,7.2-3.1,12.8-0.7,19c1.6,1.6,3.8,3.7,5.9,5.7  c0,2.3,0,4.4,0,6.8c-2.8,3.4-7.6,4.9-10.1,9.4c0.1,4.9,0.1,4.9,5.8,10.5c2.5-0.4,4.5,1.8,7.2,1.3c2.7-0.5,5,1.4,7.5,1.9  c2.4,0.4,4.4,1.7,6.9,2.1c1,0.1,2,1.2,3.3,1.2c8.7-0.2,15.7,3.7,21.8,9.3c0,2.8,0,5.3,0,8.1c-0.9,0.8-2.1,1.8-3.5,3.1  c-3.6-0.5-7.8,1-11.8-1.2c-0.8-0.4-1.9,0.2-2.9,0.7c-4.4,2-9,2.8-13.5,0.5c-3-1.5-5.6-1.4-8.6,0c-3.8,1.8-7.7,1.6-11.8,0.1  c-5.2-1.9-5.5-2-10.3,0.2c-3.7,1.7-6.9,1.2-10-0.4c-3.4-1.8-7.2-3.1-9.7-7.2c0-2.6,0-5.7,0-9c2.3-2.3,4.7-4.7,7.4-7.4  c-0.6-2.1,1.6-3.7,1.5-6.1c-0.1-2.1-2.2-3.6-1.4-5.6c-2.6-2.6-5.1-5.1-7-7c-2.7-5.9-1.8-11.6-1.9-17.2c-0.1-3,0-6,0-9  c0-2.4-0.3-4.8,0.1-7.1c0.4-2.3-2.6-3.6-1.2-5.8c-2.3-2.3-4.5-4.4-6.6-6.4c0-2.2,0-4.3,0-7c0.9-0.8,2.3-1.9,3.5-3.1  c4-4.3,4-8.1-0.1-12.3c-4.9-5.1-10-10-15-15c0-3,0-6,0-9c2.4-1.8,2.8-5.1,5-6.4c0.5-2.5-0.5-4.5-2.1-4.4c-2.1,0.1-3.3-1.7-5.3-1.5  c-2.9,0.3-5-1.5-6.9-3.4c-1.8-1.8-3.6-3.6-5.5-5.5c-9.7-2-22.5-2.1-32.3,0c-0.2,0.2-0.3,0.3-0.5,0.5c-6.9,6.9-6.9,7.1-15.9,9.7  c-2.2,0.6-3.4,1.2-3.6,4.3c-0.2,1.3,2.5,1.6,2.7,3.3c0.2,1.8,1.8,2.2,2.6,3.5c0,3,0,6,0,9c-4.5,4.5-8.9,9.2-13.6,13.5  c-6.2,5.8-5.3,10.5-0.1,15.1c0.6,0.6,1.2,1.2,2,2c0,2.1,0,4.4,0,6.8c-1.9,1.9-3.8,3.8-5.8,5.8c-2.6,5.8-1.6,11.9-1.7,17.9  c-0.1,4.3-0.1,8.6,0,12.9c0.1,4.8-1.3,8.9-5.1,12.1c-1.3,1.1-2.4,2.4-3.7,3.6c-1.3,6.1-1.3,6.1-0.2,11.8c2.5,2.4,5.2,4.9,7.6,7.3  c0,3.3,0,6.3,0,9.1c-2.2,3.9-6.2,5.4-9.8,7.3c-3.1,1.6-6.3,2.1-10,0.4c-4.9-2.3-5.2-2.1-10.3-0.3c-4.1,1.5-8,1.8-11.8-0.1  c-3-1.4-5.6-1.6-8.6,0c-4.5,2.4-9.1,1.4-13.5-0.5c-1-0.4-2.1-1.2-2.9-0.7c-3.8,2.5-7.9,0.4-12.2,1.6c-0.8-1.2-1.6-2.4-2.4-3.7  c-0.2,0.2-0.5,0.3-0.7,0.5c0-2.7,0-5.5,0-8.2c4-5.3,10.4-6.7,15.9-9.5c0.3-0.2,0.8-0.1,1.3,0c5.5,0.6,10.3-1.8,15.3-3.5  c2.6-0.9,5.4-2.3,8.3-1.6c2.2,0.5,3.6-2.2,5.9-1.3c3.2-3,6.7-5.8,5.9-10.7c-2.6-4-6.8-5.9-10.1-9c0-2.2,0-4.5,0-6.9  c1.9-1.9,3.9-3.9,5.8-5.8c2.3-5.8,2.5-11.6-0.3-17.9c-1.9-1.9-4.3-4.3-6.9-6.9c0-2.8,0-5.8,0-9c3.6-5.6,11.2-6.4,15.3-11.8  c0-1.2,0-2.5,0-3.8c-8.4-12.4-7.2-12.1-5.1-25.7c2.4-2.4,4.8-4.8,7.3-7.3c2.8-12.6,2.5-21.7-1.4-28.1c-2.6,0.4-5.2-0.3-8.2,1.1  c-2.5,1.1-5.9,0.2-9,0.2c-1.4-5.4,1.6-11.6-3.5-16.7c-8.5-0.9-14.6,4.7-21,8.9c-0.8,3.8,0.3,6.6,2.7,8.8c3.2,2.9,5.8,6.4,10.1,8.1  c2.4,0.9,4.1,3.6,6,5.3c0.9,3.1-1.5,4.3-2.9,5.9c-6.1,1.1-11.3-1.1-16.4-3.7c-0.5-0.3-1-0.8-1.5-1c-7-2.4-12.6-6.8-17.4-12.3  c-2-2.2-4.2-4.3-6.5-6.5c0-2.8,0-5.8,0-9.3c4.1-4.1,8.6-8.3,12.7-12.9c1.4-1.5,3.1-2.5,4.6-2.9c3.1-0.8,5.1-3.1,7.8-4.4  c3.2-1.6,3.8-5.2,4.2-8.4c0.4-3.6,0-7.3,0.1-10.9c0.1-1.9-2.3-3.2-1.3-5.3c-2.6-2.5-5.2-5.1-7.4-7.2c-2.3-7.1-2.3-13.5-0.1-20.2  c2.2-2.2,4.6-4.2,7.7-5.8c2.6-1.3,5.6-2.8,7.5-5.8c0.6-3.3-1-6-3.5-8.5c-4-3.9-7.9-7.9-11.7-11.7c-2.9-9.6-1.5-19.1-0.1-28.1  c-1.6-2.4-3.5-3.7-5.6-4.5c-2.1-0.8-3.4-2.2-4.4-3.2c-2.2-5.3-2.5-10.1,0.6-15.6c1.6-1.6,4-4,5.9-5.9c2.1-4.5,2.5-8.7,2-12.8  c-0.3-2.2,2.3-3.6,1.4-5.8c2.3-3.4,5.7-5.4,9.4-6.8c5.4-2.1,9.9-6,15.8-6.9c1.2-1.9,3-1.2,4.6-1.2c10.9,0,21.9,0.1,32.8-0.1  c4.1-0.1,7.6,1.7,11.1,2.9c4.4,1.5,8.6,2.5,12.7,2.3c2.7-1.2,4.8-2.4,6.5-4.9c-0.9-4.9-1.9-10-2.8-15.1c-1.9-1.9-3.6-4-5.6-5.5  c-1.6-1.2-2.8-3.2-2.9-4.6c-0.5-4.7-3.7-7.3-6.6-10.2c-2.1-2.1-3.7-4.2-4.2-7.3c-0.3-1.9-1.5-3.7-3.1-5.1c-1.9-1.7-3.7-3.6-5.7-5.6  c0-3,0-6.1,0-9.4c2.3-2.3,4.8-4.8,7.3-7.3c1-4.4,2-8.9,3.1-13.4c4.4-4.4,8.8-8.8,12.1-12.1c4.6-3,8.7-1.8,12.4-3.3  c3.3-1.3,7.1-1.6,10.3-3.2c1.8-0.9,3.5-1.1,5.3-1.1c5.8,0,11.6,0.3,17.4-0.1c6-0.5,11.3,1.4,16.7,3.2c2.9,1,5.6,2.6,8.8,2  c2.2-0.4,3.7,1.8,5.7,1.4c4.6,4.6,9.1,9.1,14,14c0.8,3.7,1.8,8,2.7,12.4c2.4,2.4,4.8,4.8,7.4,7.4c0,3,0,6.1,0,9.4  c-1.9,1.9-3.8,4-5.9,5.8c-1.5,1.3-2.7,3.2-2.8,4.6c-0.3,4-2.9,6.3-5.4,8.8c-2.5,2.5-4.9,4.8-5.3,8.8c-0.1,1.3-1.2,3.3-2.8,4.6  c-2,1.6-3.7,3.6-5.5,5.4c-2.3,4.9-1.2,10.5-3.5,15.2c4.3,5.3,9,6.4,15.1,4.2c3.7-1.4,7.7-2.2,11.3-3.8c1.3-0.6,2.5-0.3,3.7-0.3  c10.9,0,21.9,0,32.8-0.1c3.2,0,5.9,1,8.7,2.4c5,2.4,9.9,5,15,7.2c2.6,1.2,4.3,3.2,6.3,5c0.3,3.1,2.3,5.8,1.5,9.1  c-0.8,3.2,1.3,6,1.3,9.2c2.5,2.5,5.1,5,7.7,7.5c-0.9,2.6,1.6,4.2,1.4,6.7c-0.4,5.3-1.5,9.8-6.9,11.8c-1.9,0.7-3,2.1-4.9,3.6  C384.9,190.6,386.6,200,383.5,210.1z M332.4,256c0-0.5,0.1-1,0-1.3c-1.9-4-1.4-8.2-1.2-12.3c0.2-2.7,1.2-5.3,3.1-7.7  c4.5-5.8,4.7-6.5,0-12.7c-1.6-2.2-2.6-4.4-3.4-7c-1.2-3.9-1.1-7.8-1.1-11.7c0-9.6,0-19.2,0-28.4c-1.2-1-1.7-2.2-3.2-1.8  c-0.5,0.5-1.1,1-1.9,1.8c0,3,0.1,6.2,0,9.3c-0.5,11.8,1.2,23.7-1.1,35.5c-0.6,3-1.4,5.5-3.6,7.6c-5.3,5.3-10.6,10.6-16.1,16  c1.3,2.4-1.7,3.9-1.2,6.5c0.5,2.5,0.1,5.1,0.1,7.7c0,3.4-0.1,6.9,0,10.3c0.2,5-1.2,9.2-5.1,12.7c-5.1,4.7-5.1,6.5-1.5,12.7  c0.4,0.5,1.1,0.6,1.6,0.8c5.2,2.7,10.3,5.1,16.5,5.3c3.3,0.1,7.1,1.7,8.3,6c0.7,2.4,2.3,4.3,4.5,5.4c4.5-1.8,4.2-7.1,7.6-9.6  c3.3-2.4,6.8-4.7,9.2-8.3c-0.3-1.4,0.1-2.7-0.6-4.2c-1.3-2.7-2.1-5.6-2-8.8c0.1-5.4,0.8-10.9-1.7-16.7  C337.5,261.1,335,258.6,332.4,256z M195.5,309.3c0.7-0.9,1.5-1.7,2-3c1.9-5.3,6.2-7.1,11.5-7.2c1.6,0,3.2-0.8,4.7-1.1  c4.3-0.9,7.6-3.6,11.2-5c1-2.3,2.7-4.1,2.1-6.6c-0.6-2.5-2-4.4-3.9-6.1c-0.2-0.1-0.3-0.3-0.5-0.5c-3.5-2.8-4.6-6.6-4.6-11  c0-6.2,0-12.4,0-18.6c0-3.9-1.4-7.3-4-9.9c-3.9-3.9-7.9-7.9-11.8-11.8c-1.7-1.8-3.9-3.2-4.2-5.8c-1.7-6.2-1.9-12.4-1.9-18.7  c0.1-9.8,0-19.6,0-29.3c-1.2-0.7-1.6-2-3.2-1.7c-0.5,0.5-1.2,1.3-1.9,2.1c0,11.1,0.2,22.2-0.1,33.4c-0.1,4.8-0.9,9.6-4.5,13.5  c-4.3,4.6-4.1,7.8,0.2,12.8c0.7,0.8,1.5,1.3,1.9,2.4c1.7,4.9,1.2,9.9,1.2,14.9c-2,1.9-1.4,5.1-4,6.7c-2,1.2-3.5,3.1-4.7,4.2  c-0.6,3.8-1.8,6.7-1.6,9.9c0.3,5.8,0.8,11.6-2.4,17c-0.5,0.8-0.1,2.1-0.1,2.9c3.6,6,12.1,7.4,13.2,15.2  C192.1,307.9,193.4,310.3,195.5,309.3z M340.1,325.4c-1.5-2.1-2.3-3.3-3.1-4.5c-0.9,0.8-1.5,1.4-1.9,1.8c0,2.6,0,4.9,0,6.9  c1,0.9,1.5,2,2.9,1.6c0.7-0.6,1.5-1.3,2-1.7C340.1,327.6,340.1,326.1,340.1,325.4z"
   style="fill:#000000;stroke:none;stroke-width:1;stroke-miterlimit:4;stroke-dasharray:none;fill-opacity:1" />
</svg>
