<?xml version="1.0" encoding="UTF-8" standalone="no"?>
<svg
   xmlns:dc="http://purl.org/dc/elements/1.1/"
   xmlns:cc="http://creativecommons.org/ns#"
   xmlns:rdf="http://www.w3.org/1999/02/22-rdf-syntax-ns#"
   xmlns:svg="http://www.w3.org/2000/svg"
   xmlns="http://www.w3.org/2000/svg"
   xmlns:sodipodi="http://sodipodi.sourceforge.net/DTD/sodipodi-0.dtd"
   xmlns:inkscape="http://www.inkscape.org/namespaces/inkscape"
   version="1.1"
   id="Layer_1"
   x="0px"
   y="0px"
   viewBox="0 0 512 512"
   style="enable-background:new 0 0 512 512;"
   xml:space="preserve"
   sodipodi:docname="Elowan.svg"
   inkscape:export-filename="C:\Users\marvi\Documents\GitHub\StarflightHDRP\Assets\Art\Textures\Personnel\Elowan.png"
   inkscape:export-xdpi="96"
   inkscape:export-ydpi="96"
   inkscape:version="1.0.2 (e86c870879, 2021-01-15, custom)"><metadata
   id="metadata879"><rdf:RDF><cc:Work
       rdf:about=""><dc:format>image/svg+xml</dc:format><dc:type
         rdf:resource="http://purl.org/dc/dcmitype/StillImage" /></cc:Work></rdf:RDF></metadata><defs
   id="defs877" /><sodipodi:namedview
   pagecolor="#ffffff"
   bordercolor="#666666"
   borderopacity="1"
   objecttolerance="10"
   gridtolerance="10"
   guidetolerance="10"
   inkscape:pageopacity="0"
   inkscape:pageshadow="2"
   inkscape:window-width="3440"
   inkscape:window-height="1387"
   id="namedview875"
   showgrid="false"
   inkscape:zoom="1.96875"
   inkscape:cx="256"
   inkscape:cy="256"
   inkscape:window-x="-8"
   inkscape:window-y="-8"
   inkscape:window-maximized="1"
   inkscape:current-layer="Layer_1" />
<g
   id="Elowan"
   style="fill:#000000;fill-opacity:1;stroke:none">
	<path
   d="m 418.4,230.4 c -4.3,-0.6 -8.3,-0.1 -12.1,2.4 -5.4,3.5 -11.5,4.3 -17.5,3.7 -1.7,1.8 -3.3,3.5 -5,5.3 0.5,1.4 1.9,2.8 3.5,3.5 4.9,2.1 9,5.2 12.6,9.4 0,1 0,2.2 0,3.6 -5,5.5 -9.5,6 -17.5,2.7 -5.7,-2.4 -10.4,-6 -14.1,-10.6 -2.4,-0.4 -4.5,0.6 -5.7,1.9 -3.3,3.7 -7.9,5.9 -11.2,9.8 0,1 0,2.2 0,3.8 2,3.8 7.1,4.8 9.3,8.3 2.3,6 3.4,11.7 -2.8,16.1 -6.6,1.1 -12.2,-1.7 -16.6,-6.8 0.8,-1.8 -1.5,-3.2 -1.3,-5.3 0.1,-1.9 0,-3.8 0,-5.7 -1.3,-2 -3,-3.6 -5.4,-4.5 -8.7,0 -17.5,0 -26.5,0 -4.8,1.5 -6.3,5.7 -7,10.3 -4.4,4.4 -8.8,8.8 -13.3,13.3 -2.6,-0.3 -5,2.2 -8,1.3 -2.8,-0.9 -5.9,-1.1 -7.9,-3.7 -2.7,-3.4 -2.7,-6.9 0,-10.2 1.8,-2.2 4.1,-3.8 6.7,-4.9 5.1,-2.3 9.9,-5 13.7,-9.3 0.7,-2.8 -0.3,-5.3 -2,-7.1 -3.7,-4.1 -7.6,-8.1 -12.3,-11.1 -0.4,-0.3 -1.2,0 -2.5,0 -4.2,4 -6,10.6 -11.2,13.5 -2.9,6.3 -1.7,12.5 -1.9,18.6 0,1 -0.4,2.1 0.6,2.9 1.2,1 1,2.7 0.6,3.4 -2.5,4 0.3,8.8 -2.3,12.9 -0.7,1.1 -1.5,1.9 -2.3,2.8 -1.5,1.7 -3.2,3.3 -4.8,4.9 -1.5,5.9 -1.5,5.9 -0.4,11.9 11.5,11.5 23,23 34.5,34.5 2,2 3.9,3.8 4.3,7 0.2,2.1 1.5,4 3.2,5.5 1.9,1.7 3.6,3.5 5.3,5.3 0.9,4.2 1.9,8.5 2.8,13 2.3,2.2 4.8,4.7 7,6.9 1,3.5 1.6,6.5 1.7,9.8 0.1,3.3 -1,6.3 -1.7,9.5 -2.3,2.3 -4.6,4.6 -7,7 -2.1,7.1 -2.3,14.2 0.2,22.1 1.4,1.3 3.2,3.4 5.3,5 1.6,1.2 2.7,3.1 2.9,4.4 0.7,6.5 5.3,8.9 10.3,11.2 1.9,0.9 4.1,1.8 6.1,1.8 6.3,0 11.8,2.2 17.4,4.9 3.8,1.9 6.3,4.7 9.7,7.7 -1.8,1.2 -3.1,2.1 -4.5,3 -4.5,1.8 -9.2,-0.4 -13.9,-1.9 -2,-0.7 -3.8,-0.9 -5.8,-1.1 -4.3,-0.4 -8.5,-1.2 -12.6,-3.7 -1.1,0 -2.7,-0.4 -4,0.1 -5.7,1.9 -11.2,4.3 -17.2,5.4 -0.9,0.2 -3.1,0.2 -3.3,2.1 -4.6,0 -9,-0.1 -13.4,0 -3.2,0.1 -6.2,0.4 -7.7,4.2 -0.7,1.7 -2.9,2.9 -4.6,4.5 -1.3,0 -2.9,0 -4.6,0 -1,-1 -2,-2.1 -3.1,-3.2 0,-2 0,-4.1 0,-6.3 1.4,-1.4 2.9,-2.8 4.5,-4.3 3.6,0 7.3,0 11.2,0 3.4,-4.6 10.5,-4.7 13.1,-10.9 -0.7,-6.3 1.3,-13.1 -2.2,-20.6 -1.7,-1.6 -4.2,-4.1 -6.6,-6.6 -1.9,-9.7 -2,-19.7 0.1,-29.1 2.4,-2.4 4.7,-4.7 7.1,-7.1 1.3,-6.1 1.3,-6.1 0.1,-12.1 -1.2,-1.1 -2.9,-2.7 -4.6,-4.2 -2.1,-1.9 -3.5,-4.1 -4.1,-7.1 -0.5,-2.6 -2.3,-4.5 -4.3,-6.4 -2.7,-2.6 -5.2,-5.2 -6,-9.5 -0.7,-4.1 -4.9,-6.2 -8.3,-7.9 -4,-2 -7.7,-4.1 -10.7,-7.5 -2.4,-2.7 -5.6,-2.9 -8.9,-2.5 -0.5,1.3 -2,1.2 -3,1.6 -3.9,1.3 -5.6,4.6 -6.1,8 -0.4,2.8 -1,5.5 -2.2,9.2 -7.4,7.4 -15.6,15.6 -23.9,23.9 -2,2 -3.8,3.9 -4.3,7 -0.3,2 -1.5,4 -3.2,5.5 -1.9,1.6 -3.6,3.5 -5.3,5.2 -0.9,4.3 -1.9,8.5 -2.8,12.8 -2.3,2.3 -4.7,4.7 -6.8,6.8 -2.9,6.5 -1.5,13.1 -1.8,19.5 -0.1,3.1 0,6.3 0,9.4 1.1,2.1 2.8,3.9 2.5,6.7 1.4,1.3 3,2.7 5,4.5 9.1,-0.9 18.6,-0.2 27.1,6.3 9,-1.2 17.3,0.9 24.2,7.8 0,2.3 0,4.8 0,7.2 -1.4,1.4 -2.9,2.8 -5,4.8 -1.4,0 -3.9,0 -6.7,0 -2.8,-1 -4.6,-3.1 -5.7,-6.4 -1.3,-3.9 -4.1,-6.8 -8.1,-8.3 -3.2,-1.2 -6.1,1.3 -9.4,1.1 -3.1,-0.2 -6.2,0 -9.2,-0.2 -5,-1.3 -6,-6 -8.2,-9.3 -1.4,-0.9 -2.7,-0.4 -3.9,-0.6 -1.7,0.5 -2.3,2.3 -4,3.2 1.3,5 1.6,10.2 5.8,14.3 3.2,0.2 6.8,-0.7 10,1.2 1.4,1.6 2.7,3.1 4.5,5.1 0,1.2 0,3.3 0,5.9 -0.8,0.6 -2,1.5 -4.1,3 -4,0.9 -6.7,-3 -10.2,-6.4 -4,-0.3 -8,2.5 -13.1,0.8 -1.4,-0.8 -3,-2.8 -3.5,-5 -1.2,-5.1 -5.3,-7.1 -9.1,-9.5 -4.8,-3.1 -10.3,-4.4 -15.2,-7.1 -0.5,-0.3 -1.2,-0.5 -1.7,-0.4 -6.2,0.9 -12.1,-1.8 -18.3,-1.3 -3.2,1.9 -7,2.9 -9,6.2 -3.2,0 -6.1,0 -7.6,0 -3.7,-0.9 -5.4,-2.6 -6.8,-4.4 0,-1.3 0,-2.6 0,-3.5 3,-4 6.6,-6.7 11.3,-7.9 1.5,-0.4 2.4,-0.4 3.9,0.3 3,1.4 6.2,2.1 9.9,3.2 7.4,-5.9 16.5,-5.5 25.5,-5.1 0.7,-1.7 2.6,-1.1 3.6,-2.3 1.9,-2.2 3.4,-4.3 3.4,-7.4 -0.1,-5.8 -0.1,-11.7 0,-17.5 0,-4.5 -0.6,-9 1.5,-13.3 2.3,-2.3 4.8,-4.8 7.3,-7.3 1.2,-4.2 1.6,-8.2 1.1,-12.2 -0.3,-2.2 2.6,-3.5 1.1,-5.7 1.7,-1.6 3.2,-3 4.6,-4.5 2.2,-2.1 4.1,-4.2 4.5,-7.6 0.3,-2.1 1.8,-3.9 3.4,-5.4 5.1,-4.9 10.1,-10 15.1,-15 0.9,-4.2 1.9,-8.4 2.8,-12.8 2.2,-2.2 4.6,-4.6 7,-7 0.5,-2 1.3,-4 1.5,-6.1 0.3,-2.1 0.2,-4.2 0,-6.3 -0.1,-2.1 1.9,-3.5 1.4,-5.7 3.4,-3.3 6.9,-6.3 8.5,-12.3 -1.8,-6.6 4.3,-10.4 8.8,-15 2.3,-13.2 2,-20.9 -1.6,-27 -2.7,0.2 -5.5,-0.4 -8.5,1 -1.4,0.6 -3,1.8 -5,1.5 -1.8,-0.3 -3.7,-0.1 -5.4,-0.1 -6.3,3.7 -10.3,9.7 -15.5,14.1 -0.6,1.8 0.7,4 -1.7,5.4 5.2,3.6 11.2,5.6 16.5,8.7 2.1,1.9 2.7,4.4 2.5,7.2 -1.3,2.1 -3.1,3.5 -5.5,4.3 -7.1,1.8 -12.9,-2.1 -18.9,-4.9 -1.8,-0.8 -3.4,-2.8 -4.4,-4.9 -1.8,-3.5 -4.9,-5 -8.9,-4.9 -3.3,0.1 -6.7,0.2 -10,0 -4.4,-0.3 -8.2,1.2 -12,2.9 -2.8,1.3 -5.4,3.1 -8.2,4.3 -2.8,1.2 -5.8,2.2 -8.9,2.7 -2.6,0.4 -5.4,0.2 -8.1,0.1 -2.5,-0.1 -4.4,2.3 -6.9,1.1 -3.8,4.8 -9,7.4 -14.1,10.2 -2,1.1 -4.4,1.6 -6.3,2.9 -4.2,2.7 -8.6,4.2 -13.7,3.2 -0.8,-0.8 -1.6,-1.6 -2.7,-2.7 0,-2.4 0,-5.1 0,-7.8 3.4,-4.9 9.5,-6 14.4,-9.3 2.4,-0.4 5.4,1 7.6,-0.6 1.5,-1 3.5,0.3 4.4,-1.6 0.3,-0.5 0.7,-0.9 1.2,-1.6 -4.8,-6.8 -11.9,-8.1 -20,-9.1 -1.2,1.4 -2.6,2.8 -3.9,4.5 -4.4,5.7 -15.6,8 -23.6,3.5 -2.3,-1.3 -3.5,-3.3 -5.5,-4.4 0,-1.3 0,-2.3 0,-3.9 1.7,-1.2 2.7,-3.4 5.2,-4.4 2.9,-1.2 5.7,-2.6 9,-2.4 4.2,0.2 8.5,-0.7 12.7,1.2 0.8,0.3 2,0.4 2.9,-0.2 0.7,-1.2 0.1,-2.2 -0.8,-2.6 -3.7,-1.7 -5.9,-5 -8.7,-7.5 -0.6,-1.9 -0.1,-3.3 1.6,-4.5 2.7,0 5.6,0 9,0 1.2,1.8 3.6,2.9 4.6,5.7 0.6,1.7 2.6,2.9 4.6,3.6 8.4,2.9 16.1,7.4 24,11.5 2.8,1.5 6,1.7 8.9,2.7 2.5,0.9 4.9,-1.1 7.3,-1.9 1.4,-0.4 1.3,-1.9 1,-3.8 -3.7,-3.7 -7.8,-7.9 -12,-12 -1.9,-1.9 -3,-4.2 -2.9,-7 0,-1.3 1,-1.7 1.7,-2.7 2.5,0 5.2,0 7.8,0 3.8,2 7.4,4.4 11.3,6 3.6,1.5 6.4,3.4 8.3,7.1 1.9,3.7 8.5,5.5 13.1,4 6.8,-2.2 13.4,-5 19.5,-8.7 3.5,-2.1 6.1,-5.6 9,-8.6 3.4,-3.5 7.2,-6.3 11.8,-7.9 5.7,-2 11.1,-5.1 17.5,-4.7 2.5,0.2 4.5,-1.2 6.6,-2.1 3.6,-1.6 7.5,-2.7 9.9,-6.2 2.4,-9.8 0.9,-19.7 1.1,-29.5 0,-2.4 -0.8,-5 -2.7,-7 -2.6,-0.8 -5,0 -7.5,1 -5.9,2.3 -11.7,4.6 -16.1,9.5 -2.9,3.3 -6,6.4 -9.3,9.3 -4,3.5 -5.5,8 -4.1,12.6 1.1,3.5 0.6,6.8 1.2,10.7 -1,0.7 -2.2,1.5 -4.3,2.9 -0.4,0 -2.3,0 -4.1,0 -1.4,-1.7 -3.7,-2 -5.6,-2.9 -2.3,-1.1 -4.5,-2.6 -5.5,-4.6 -1.5,-2.9 -3.6,-4.6 -6.9,-6.1 -5,0 -10.8,0.7 -16.3,-0.2 -4.3,-0.7 -8.5,-2.6 -13.2,-2.4 -0.1,-0.5 -0.1,-0.9 -0.2,-1.4 -0.6,1.3 -1.2,2.6 -1.9,3.9 -1,4.5 -3.3,8.3 -8.2,10.5 -0.7,0.3 -1.6,0.6 -2.1,1 -4.4,3.3 -9.4,4.3 -15.1,3.5 -1.8,-1.2 -4.5,-1.9 -5.7,-4.7 0,-0.8 0,-1.8 0,-3.3 2.3,-1.6 3.7,-4.2 6.7,-5.7 4.1,-2.1 7.9,-4.9 12.5,-6.2 2.2,-0.7 4.3,-2.1 5.7,-4.2 -1.1,-1.2 -1.2,-3.2 -2.9,-4.3 -0.5,0 -1.1,-0.1 -1.7,-0.1 -4.8,0.1 -9.5,-0.3 -14.1,2.4 -4.1,2.4 -9.4,2.3 -13.7,1.1 -4.1,-1.1 -8.1,-1.1 -12.1,-0.9 -6.6,0.3 -12.6,-1.3 -18.2,-4.6 -2,-1.2 -4.1,-2.7 -6.3,-2.8 -3,-0.2 -5.7,-2.5 -9.7,-0.8 -4.2,6 -11.5,9.3 -18.8,12.4 -2.1,0.9 -4.2,1.9 -6.7,2.1 -4.4,0.3 -8,-0.7 -10.8,-4.5 -0.6,-3.1 0.5,-5.7 2.8,-7.9 3,-2.9 5.9,-5.9 8.9,-8.9 2,0.8 3.2,-1.3 5,-1.3 3.8,-0.1 7.5,0.2 11,2.2 2,1.1 4.2,2.5 6.7,1.5 3.3,-2.7 3.2,-6.4 2.9,-10.4 -0.9,-2.7 -3.2,-4.8 -5.4,-6.8 -2.2,-1.9 -2.5,-4.9 -4.5,-7.2 0,-1.4 -0.2,-3.1 0,-4.7 0.9,-6.2 -1,-11.3 -6.1,-15 -1.7,-1.2 -2.4,-3.2 -3.6,-4.8 -0.7,-1 0,-2 -0.5,-3.2 2.5,0 4.7,0 7.4,0 1.3,1.7 3.4,3.1 4.6,5.7 0.8,1.7 2.6,3.1 4.4,4.1 3.6,2.1 6.1,4.9 6.4,9.5 0.2,2.8 2.1,5.1 4.9,7 2.8,-1.9 4.7,-5 7.5,-7 2.5,-1.8 5.5,-2.9 8.6,-4.6 1.9,0.5 4.3,-0.7 6.7,0.7 3.3,2 7.4,2.8 9.8,6.3 0,1.5 0,2.9 0,4.4 -0.2,0.3 -0.3,0.7 -0.6,1 -2.4,2.7 -5.3,4.1 -9.1,3.9 -4.4,-0.2 -8.8,-0.1 -13.4,-0.1 -1.2,1.4 -2.6,3 -4.7,5.4 -0.6,2.2 0.6,5.4 1.7,9.1 2.7,4.2 7.9,5.5 12.4,8 2.7,1.5 6,2.2 7.7,4.7 2.8,0.9 4.9,-0.4 7,-1.6 4.1,-2.2 8.3,-3.8 13.1,-3.1 2.1,-2.2 4.8,-3.8 5.8,-6.9 0,-2.9 -0.1,-5.8 0,-8.8 0.1,-2.6 -1,-4.6 -2.7,-6.4 -2.3,-2.4 -4.7,-4.7 -7.2,-7.3 0,-2.7 0,-5.6 0,-8.2 -1.5,-3.2 -3.8,-5.1 -6.2,-7.2 -4.3,-3.7 -8.9,-7.3 -11.8,-12.5 -1.2,-2.1 -3.4,-3.6 -5.3,-5.5 -5.3,0 -10.7,-0.2 -16.1,0.1 -4.7,0.2 -9,-1 -13.2,-3.1 0,-0.8 0,-1.6 0,-2.4 3.7,-5.7 10.1,-7.5 16.2,-11 8,-0.1 14.5,3.5 19.1,11.1 2.1,0 4.3,0 6.8,0 1.4,-1.4 3.1,-3.1 4.6,-4.6 2.9,-1 4,1.4 5.8,2.9 0,2.6 0,5.3 0,7.9 0,2.6 -0.4,5.4 1.7,7.4 1.4,1.5 0.5,3.1 0.9,4.7 1.3,1.3 2.6,2.6 4.2,4.2 1.6,0 3.4,0 4.9,0 1,0.6 0.9,1.2 0.9,1.9 0,3.5 0.1,7.1 0,10.6 -0.1,3 0.8,5.5 3,7.5 3.6,3.3 6.7,6.9 8.3,11.6 0.4,1.3 1.5,1.9 2.4,2.8 5.7,5.8 11.6,11.5 17.2,17.3 1.5,1.5 3.5,2 4.9,3.5 4.1,0 8.3,-0.2 12.4,0.1 4.2,0.3 7.8,-1.3 11.4,-2.8 3.2,-1.3 6.1,-3.3 9.3,-4.8 2.4,-1.1 4.6,-2.4 6.3,-4.4 4.4,-5.1 9.8,-9 15.8,-11.7 1.6,-0.7 2.8,-1.8 3.8,-2.9 4.3,-5 9.5,-8.9 15.1,-12.1 1.7,-1 2.5,-2.6 4.1,-3.1 0.3,-3.3 -0.6,-5.9 -2.7,-7.9 -2.6,-2.5 -3.4,-5.7 -3.5,-9.2 0,-1 0,-2.1 0,-3.1 0,-4.2 0.5,-8.5 -2.1,-13.4 -1.6,-1.6 -4,-4 -5.8,-5.8 -2.7,-4.5 -2.4,-8.8 -2,-13 0.2,-2.1 -2.9,-3 -1.3,-4.8 -5.9,-5.9 -11.7,-11.7 -17.2,-17.2 -1.1,-4.8 -2.1,-9.2 -3,-13.6 -2.3,-2.3 -4.7,-4.7 -7.2,-7.2 -2.1,-7.8 -2.1,-15.7 0,-24 2.4,-2.2 4.9,-4.7 7.5,-7.1 3.2,-5.7 -0.9,-12.4 4.9,-20.3 6.1,-5.2 12.9,-14.8 22.2,-21 8.1,1.7 14,6.5 20.9,8.9 4.7,4.7 9.4,9.5 14.1,14.3 1.6,3.9 1.3,8.4 3.8,13.3 4.8,4.8 10.6,10.6 16,16 2.4,6.7 2.7,13 0.4,19.2 -2.5,2.5 -5,5 -6.4,6.4 -2.4,5.5 -1.9,10 -3.4,14.2 -1.9,1.9 -3.9,3.8 -5.8,5.6 -1.6,1.6 -2.6,3.4 -3.1,5.6 -0.9,3.9 -3.2,6.5 -6.9,8.4 -3.3,1.7 -6.6,3.6 -9.2,6.5 -0.9,4.7 2.1,7.5 4.7,9.9 1,4.5 1.9,8.6 2.9,12.9 2.3,2.2 4.9,4.7 7.2,7 0.1,1.7 -0.3,3.2 1.2,4 0.9,11.4 -1.2,22.8 1.5,34 2.4,2.4 4.7,4.7 7.1,7.1 0.9,3.7 2.2,7.5 2.7,11.3 0.3,2 1.4,3.2 2.6,3.9 1.6,0.9 2.8,2.6 4.3,3.1 6.6,2 10.6,7.1 15.2,11.6 3.3,3.2 6.5,6.5 9.7,9.7 9.5,2.1 22,2 31.5,0.1 3.8,-3.8 7.7,-7.7 11.8,-11.8 -0.6,-2.1 1.5,-3.6 1.5,-6 0,-2.2 -2.8,-3.3 -1.3,-5.3 -2.7,-2.7 -5,-5 -6.9,-6.9 -2,-4.4 -2.4,-8.4 -1.9,-12.4 0.3,-2.2 -2.3,-3.5 -1.3,-5.8 -2.5,-2.5 -5.2,-4.8 -7.5,-7.5 -2.1,-2.5 -0.7,-6.2 -3.3,-9.1 -2.5,-0.9 -5.2,0 -7.9,1.4 -2.6,1.3 -5.4,2.3 -8.5,2.2 -4.4,-0.2 -8.8,-0.1 -13.1,-0.1 -1.9,-1.4 -4.6,-1.8 -5.9,-5.3 0,-0.1 0,-1.3 0,-3 1.8,-1.6 3.6,-3.9 6,-5.3 4.8,-2.9 10.2,-4.7 15.9,-3.8 6.3,1 10.8,5.1 14.5,9.8 6.1,0 7.1,-0.6 11.1,-6.9 -1.5,-7.4 4.9,-10.4 8.7,-15 0,-2.4 0,-4.9 0,-7.8 3.2,-0.6 7,0.7 9.7,-1.9 2.4,-2.3 4.7,-4.7 6.9,-6.9 2,0 3.8,0 5.7,0 0,1.8 0,3.5 0,4.9 -2.1,2.1 -4.1,4.1 -6,6 0,1.9 0,3.3 0,4.7 2.1,2.2 4.5,3.1 7.5,3 3.9,-0.1 7.9,0 11.7,0 1.7,1.8 4.5,1.7 5.5,4.1 0,1.2 0,2.4 0,3.9 -1.1,1.9 -2.9,3.4 -5.3,4.4 -5.4,0 -10.8,0 -16.5,0 -4.3,-1.7 -7,-6.6 -12.2,-7.5 -2.8,2 -3.5,4.7 -3.5,7.9 0.1,6.7 0,13.4 0,20 3.6,6.2 4.7,6.9 11,7.3 1.3,-1.4 2.9,-3.1 4.4,-4.8 6.3,-7.1 20.5,-7.2 26.9,0.1 0.4,0.5 0.9,0.9 1.4,1.4 0,1.1 0,2.3 0,4 -1.7,1.1 -2.9,3.2 -5.2,4.4 -6.3,3.1 -12.4,3.3 -18.8,0.2 -2.1,-1 -4.2,-2.5 -7.1,-1.2 -4.3,5.6 -2.7,11.8 -1,18 0.3,0.9 1.3,1.8 2.2,2.2 4.4,1.9 8.5,4.4 13.2,6 4.4,1.5 8,0.7 11,-1.6 5.5,-4.2 12.1,-6.3 17.9,-9.8 4.3,-2.6 9.1,-4.1 13.6,-6.4 1.9,-1 3.8,-2.2 5.4,-3.8 2.8,-2.9 5.3,-6.3 9.1,-8.1 1.9,-0.9 2.3,-3.2 3.8,-5.3 0,-2.5 0,-5.6 0,-8.5 2.6,-1.8 2.6,-1.8 6.8,-1.9 4.2,-3.4 7.4,-7.7 12,-10.8 6.7,-4.6 14.8,-5.3 21.8,-1.9 3.6,1.7 6.3,4.2 9.2,7 0,1.1 0,2.3 0,3.7 -4.4,5 -7.5,5.8 -14,3.7 -1.5,-0.5 -2.9,-0.9 -4.4,-1.4 -5.1,-1.9 -5.2,-1.8 -11.7,0.8 -1,0.4 -2,0.1 -3,0.4 -1.3,1.3 -2.6,2.6 -4.1,4.1 0,1.6 0,3.5 0,5.3 1.3,1.3 2.6,2.6 4.1,4.1 2.3,0 4.8,0 7,0 2.2,1.4 4.7,2 6.1,5 0,0.5 0,1.8 0,3.2 -1.1,2 -3.2,3.1 -5.8,4.3 -7.1,0.3 -7.1,0.3 -14.6,-7.2 -1.8,0 -3.6,0 -5.3,0 -1.2,3 -2,6.1 -3.7,8.6 -1.8,2.7 -4.6,4.8 -7.1,7.3 4.3,6.7 13.2,7 17.8,13.4 0,2.1 0,4.5 0,7.8 -0.6,0.4 -1.8,1.2 -3.1,1.9 -3.8,2.1 -8.3,0.8 -11.9,-0.7 -3.9,-1.6 -8.3,1 -9.9,-1.2 -5.9,-2.9 -5.9,-7.9 -8,-11.6 z"
   id="path865"
   style="fill:#000000;fill-opacity:1;stroke:none" />
	<path
   d="m 72,265.9 c -0.5,0.5 -1.1,1.1 -1.6,1.7 -4.1,1.1 -7.8,-1.2 -11.8,-1.5 -1.1,-0.1 -3,-0.9 -4,-2.4 -1.1,-1.7 -2.9,-3 -4.5,-4.7 -3,1 -5.4,-1.8 -8.7,-1.3 -2.9,0.4 -5.8,0.1 -7.8,0.1 -1.9,-1.4 -3.2,-2.4 -4.2,-3.1 1.8,-7.4 7.1,-10.5 14.8,-13.3 2.1,-0.4 5.6,0.7 9,2.6 3.2,1.8 5.8,3.6 7.8,6.9 1.8,3.1 5.1,5.4 7.8,8.1 1.9,1.9 3.3,4 3.2,6.9 z"
   id="path867"
   style="fill:#000000;fill-opacity:1;stroke:none" />
	<path
   d="m 347.4,149.6 c -0.6,0.6 -1.2,1.7 -1.8,1.7 -6,0.3 -11.2,3.1 -16.7,4.9 -1.7,0.6 -3.5,1.5 -5.7,1.6 -4.3,0 -8,-0.8 -10.8,-4.6 0,-1 0,-2.3 0,-3.5 3.9,-5.4 9.5,-8.5 15.9,-9.4 7.4,-1.1 11.4,1.2 19.1,9.3 z"
   id="path869"
   style="fill:#000000;fill-opacity:1;stroke:none" />
	<path
   d="m 159.7,169.6 c 0,1.4 0,2.4 0,3.5 -1.3,2.1 -3.3,3.4 -6.5,4.6 -4.3,0.6 -9,-1.1 -13.8,-3.2 -3.3,-1.4 -6.7,-3.2 -10.6,-3.1 -1.7,0 -2.5,-1.1 -2.8,-2.6 7,-11.4 22.9,-11.8 33.7,0.8 z"
   id="path871"
   style="fill:#000000;fill-opacity:1;stroke:none" />
</g>
</svg>
