<?xml version="1.0" encoding="UTF-8" standalone="no"?>
<svg
   xmlns:dc="http://purl.org/dc/elements/1.1/"
   xmlns:cc="http://creativecommons.org/ns#"
   xmlns:rdf="http://www.w3.org/1999/02/22-rdf-syntax-ns#"
   xmlns:svg="http://www.w3.org/2000/svg"
   xmlns="http://www.w3.org/2000/svg"
   xmlns:sodipodi="http://sodipodi.sourceforge.net/DTD/sodipodi-0.dtd"
   xmlns:inkscape="http://www.inkscape.org/namespaces/inkscape"
   version="1.1"
   id="Layer_1"
   x="0px"
   y="0px"
   viewBox="0 0 512 512"
   style="enable-background:new 0 0 512 512;"
   xml:space="preserve"
   sodipodi:docname="Human.svg"
   inkscape:export-filename="C:\Users\marvi\Documents\GitHub\StarflightHDRP\Assets\Art\Textures\Personnel\Human.png"
   inkscape:export-xdpi="96"
   inkscape:export-ydpi="96"
   inkscape:version="1.0.2 (e86c870879, 2021-01-15, custom)"><metadata
   id="metadata1456"><rdf:RDF><cc:Work
       rdf:about=""><dc:format>image/svg+xml</dc:format><dc:type
         rdf:resource="http://purl.org/dc/dcmitype/StillImage" /></cc:Work></rdf:RDF></metadata><defs
   id="defs1454" /><sodipodi:namedview
   pagecolor="#ffffff"
   bordercolor="#666666"
   borderopacity="1"
   objecttolerance="10"
   gridtolerance="10"
   guidetolerance="10"
   inkscape:pageopacity="0"
   inkscape:pageshadow="2"
   inkscape:window-width="3440"
   inkscape:window-height="1387"
   id="namedview1452"
   showgrid="false"
   inkscape:zoom="1.96875"
   inkscape:cx="256"
   inkscape:cy="256"
   inkscape:window-x="-8"
   inkscape:window-y="-8"
   inkscape:window-maximized="1"
   inkscape:current-layer="Layer_1" />
<path
   id="Human"
   d="M354.9,446.2c-2.7-3.2-6.3-5.1-9.7-7c-4.4-2.5-9-5-13.7-6.9c-6.3-2.6-12.4-5.8-19.6-5.5  c-2.7,0.1-5.6-1.3-8.1-2.7c-4.3-2.3-8.7-4.5-13.2-6.6c-1.6-0.7-3.4-1.5-4.7-3.1c-6.4-7.9-14.9-12.8-24.2-16.6  c-4.8-2-8.7-5.3-12.1-9.1c-2.3-2.5-4.8-4.6-8.2-5.9c-1.7-0.6-3.3-0.6-4.9-0.9c-1.1,1.3-2.2,2.7-3.7,4.6c-0.3,1.5,1.4,3.1,2.4,4.9  c0.7,1.3,2.1,2.3,3.2,3.3c2.8,2.4,3.7,5.7,3.8,9c0.2,9.5-0.1,19,0.2,28.5c0.1,2.3-2.7,3.7-1.2,5.9c-2.8,2.8-5.5,5.5-8.2,8.1  c0.6,2.9-2.1,5.2-1,8.6c1.7,4.8,5.5,7.5,8.2,10.6c2.4,5.3,2.8,10.2,0.3,15.3c-4.4,4.4-9,9-13.7,13.7c-6.1,2.5-12.6,1.4-19.1,1.4  c-25.4,0.1-50.8,0-75.5,0c-2.9-1.3-5.1-2.6-6.5-4.7c0-1.4,0-2.7,0-4c6.9-8,16.8-10.6,25.7-15c0.2-0.1,0.4-0.2,0.6-0.1  c6.6,0.9,12.3-2,18.2-4.1c3-1.1,5.8-1.2,8.8-1.2c2-1.5,4.9-1.9,6-4.6c0.9-3.6-0.5-6.6-3.2-8.8c-4.5-3.8-5.9-8.5-5.8-14.2  c0.2-10.2,0.1-20.3,0-30.5c-0.1-5.1,1.1-10.4-1.1-15.5c-1.7-1.7-3.4-3.4-5.2-5c-3.1-2.7-4.1-6.3-4.2-10.2c0-5.3-0.1-10.6,0-15.9  c0.1-3.9,1.2-7.3,4.2-10.2c10.2-10.1,20.4-20.3,30.5-30.4c1.7-1.7,3.3-3.3,5.6-4.2c4.8-1.8,9.1-4.5,12.3-8.5  c4.6-5.7,11-8.4,17.2-11.5c11.8-6.1,23.9-11.7,35.8-17.5c2.5-1.2,4.2-3.3,6.8-4.3c3-1.1,2.1-5,4.2-6.8c0-6.2,0.5-12.4-5.1-17.1  c-4.5-3.7-8-8.6-13.1-11.7c-0.5-0.3-1-0.8-1.6-1c-5.6-1.7-9.3-5.8-13.2-9.8c-5.4-5.5-10.9-11-16.4-16.4c-1.8-1.8-3.3-3.8-3.7-6.4  c-0.4-2.3-1.6-4.3-3.3-5.9c-2.1-2-4.1-4.1-6.1-6.1c-3.1-3.1-6.4-3.7-10.9-2.2c-7.8,2.7-14.7,7.2-22.2,10.4c-4.7,2-8.9,5-14,6.3  c-1.7,0.4-3.3,0.8-4.9,0.8c-7.3,0.1-14.6,0-21.9,0c-7.5,0.1-13.7-3.3-19.2-7.9c-3.9-3.2-7.2-7.2-10.9-10.7c-1.6-1.5-2.8-3.4-3.1-5.3  c-0.6-3.2-2.2-5.4-4.3-7.5c-3-3-6.1-5.7-6.7-10.5c-0.4-3.2-3.7-5.2-5.9-7.4c-2.3-2.3-4.5-4.6-4.4-8.2c-2-2.5-4.3-4.6-7.9-6  c-3.6,0-7.8-0.1-12,0c-6.8,0.2-12.5-3-17.8-6.7c-7.5-5.2-5.6-19.3,2.5-22.9c6.3-2.8,12.2-5.4,19.2-5c5.5,0.3,11,0.1,16.6,0.1  c8,0,14.8,3.1,20.3,8.5c5.2,5.1,10.5,9.9,17.3,12.6c1.6,0.6,2.4,1.8,3.5,2.8c4.7,4.6,9.6,9.2,14,14.1c3.8,4.2,8.5,7.3,12.7,11.1  c3.1,0.3,4.8-1.5,5.8-4.1c1.1-3.2,3.5-5.3,5.8-7.6c9.7-9.7,19.4-19.4,29.1-29c2.4-2.3,4.2-4.9,3.5-9.2c-3.4-3.7-8.2-6.6-13.6-8.3  c-2.9-0.9-5.4-4-8.8-2.7c-2.9,1.1-5.8,2.1-8.8,2.9c-4.7,1.3-6.6,1.1-11.7-0.1c-6.4-1.6-11.6-4.6-16-9.4c-1.8-2-3.7-3.8-5.6-5.6  c-2.7-2.7-5.4-5.2-5.9-9.6c-0.1-1.4-1.3-3.4-3-4.7c-2.3-1.7-4.2-3.9-6-5.7c-2.1-9.8-2-22.5,0-30.9c4.2-4.2,8.4-9.1,13.3-13.1  c5.1-4.3,11.2-7.3,18.1-7.3c10.8-0.1,21.6,0,32.5,0c7,0,13.1,3,18.1,7.4c7.7,6.9,14.7,14.6,22.2,21.9c1.4,1.4,2.8,3.3,2.9,4.7  c0.4,4.1,3,6.5,5.5,9.1c2.5,2.6,4.9,5,5.5,9c0.7,4.8,5.4,6.8,9.2,8.8c13.5,6.9,27,13.6,40.6,20.2c4.7,2.3,9.6,3.8,15,3.7  c12.2-0.2,12.2-0.1,24.7,4.3c0.7,0.3,1.3,1.1,2.3,0.9c6.8-1.1,12.5,3.1,18.8,4.3c0.8,0.2,1.7,1.2,2.9,1c5.3-0.9,9.8,1.9,14.6,3.2  c3.2,0.8,6.2,2.1,9.7,2.3c3,0.2,6.1,1.1,8.4,3.7c2.8,3.1,5.6,6.4,9,8.8c2.5,1.8,1.6,4.9,3.7,6.5c-0.8,3.3,1.5,6.2,1.4,9.4  c2.5,2.5,5,5,7.5,7.5c0.8,3.2,1.5,6.5,2.1,9.8c0.5,2.3,1.4,5.2,3.9,7c2.6,2,4.8,4.5,7.1,7c2.5,2.7,5.7,3.8,9,3.7  c4,0,7.3,1.6,10.8,2.9c4,1.5,7.6,4.1,11.5,5.9c3.3,1.5,6.4,3.2,8.9,6.5c0,2.9,0,6.1,0,9.3c-3.6,5.4-10.1,6.5-15.1,9.8  c-1.4,0.9-3.3,1.7-4.9,2.4c-4,1.8-8.1,3.1-12.7,3.1c-13.4-0.2-13.4-0.1-26.6-4.6c-0.6-0.2-0.9-0.8-1.7-0.7  c-3.3,0.5-6.3-0.6-10.2-1.8c-2.2-2.2-5-5-7.8-7.8c-2.6-2.6-5.5-4.9-7-9c0-0.9,0.2-2.4,0-4c-0.4-3.1-1.1-6.2-3.7-8.4  c-3.8-3.2-6.8-7.1-11.1-10c-3.3-2.2-6-5.2-6.6-9.8c-0.3-2.3-2-4.9-4.4-6c-2.1-1.1-4.5-2.7-7.5-1c3.5,7.7,5.7,16.2,13,20.7  c1.1,4,1.5,7.3,2,10.7c0.3,2.3,1,5.2,3.6,7.1c2.7,2,5.3,4.5,6.8,8.9c0,2.6,0.2,6.4-0.1,10.1c-0.3,3.5,0.7,6.7,1.8,10.8  c1.3,1.3,3.1,3.4,5.2,4.9c2.6,1.8,3.4,4.9,3.4,7.1c0.2,6.2,2.8,10.6,7.3,14.3c0.8,0.7,1.7,1.4,2.1,1.8c2.1,9.3,2.1,33.4,0.1,41.2  c-2.3,3.2-5.4,5-9,6.7c-4,1.9-7.7,4.4-10.6,7.9c-3.2,3.8-7.2,6.7-11.6,8.8c-3.1,1.5-5.9,3.3-8.2,5.7c-1.7,1.7-3.4,3.4-5.2,5.2  c-3.6,3.6-7.2,7.1-10.8,10.8c-3.4,3.5-8.4,4.5-12.2,7.5c-4.1,3.3-7.4,6.8-8.2,12c2.9,4.5,7.3,6.8,11.5,9.1c1.9,1,4,2.1,6.1,2.9  c7.9,3.3,14.9,7.9,20.5,14.5c2.6,3,5.6,5.6,8.4,8.5c2.8,3,6.1,5.3,9.7,6.9c3.6,1.6,6.6,3.8,9.2,6.7c4,4.5,8.7,8,14.3,10.3  c2.1,0.8,3.6,2.2,5.1,3.8c4,4.1,8.1,8.1,11.3,11.3c2.8,5,2.3,9.3,2.3,13.6c-0.1,3.9-1.2,7.3-4.2,10.2  c-10.2,10.1-20.2,20.4-30.5,30.4c-5.6,5.4-12.4,8.5-20.3,8.5c-3.1,0-6.2,0-9.3,0c-8,0.1-14.3-3.8-20.5-8.2c0-1.6-0.3-3,0.1-4.2  c0.7-2.6,1.2-5,4.3-6.3c9.3-3.7,15.8-10.9,22.2-18.1c2.1-2.4,4.4-6.3,1.4-10.3C354.5,448.2,354.9,447.1,354.9,446.2z"
   style="fill:#000000;fill-opacity:1;stroke:none" />
</svg>
