<?xml version="1.0" encoding="UTF-8" standalone="no"?>
<svg
   xmlns:dc="http://purl.org/dc/elements/1.1/"
   xmlns:cc="http://creativecommons.org/ns#"
   xmlns:rdf="http://www.w3.org/1999/02/22-rdf-syntax-ns#"
   xmlns:svg="http://www.w3.org/2000/svg"
   xmlns="http://www.w3.org/2000/svg"
   xmlns:sodipodi="http://sodipodi.sourceforge.net/DTD/sodipodi-0.dtd"
   xmlns:inkscape="http://www.inkscape.org/namespaces/inkscape"
   version="1.1"
   id="Layer_1"
   x="0px"
   y="0px"
   viewBox="0 0 512 512"
   style="enable-background:new 0 0 512 512;"
   xml:space="preserve"
   sodipodi:docname="Thrynn.svg"
   inkscape:export-filename="C:\Users\marvi\Documents\GitHub\StarflightHDRP\Assets\Art\Textures\Personnel\Thrynn.png"
   inkscape:export-xdpi="96"
   inkscape:export-ydpi="96"
   inkscape:version="1.0.2 (e86c870879, 2021-01-15, custom)"><metadata
   id="metadata2033"><rdf:RDF><cc:Work
       rdf:about=""><dc:format>image/svg+xml</dc:format><dc:type
         rdf:resource="http://purl.org/dc/dcmitype/StillImage" /></cc:Work></rdf:RDF></metadata><defs
   id="defs2031" /><sodipodi:namedview
   pagecolor="#ffffff"
   bordercolor="#666666"
   borderopacity="1"
   objecttolerance="10"
   gridtolerance="10"
   guidetolerance="10"
   inkscape:pageopacity="0"
   inkscape:pageshadow="2"
   inkscape:window-width="3440"
   inkscape:window-height="1387"
   id="namedview2029"
   showgrid="false"
   inkscape:zoom="1.96875"
   inkscape:cx="256"
   inkscape:cy="256"
   inkscape:window-x="-8"
   inkscape:window-y="-8"
   inkscape:window-maximized="1"
   inkscape:current-layer="Layer_1" />
<path
   id="Thrynn"
   d="M218.5,425.5c-1.1-1.2-1.7-1.8-2.4-2.6c-2.5,0.2-5.3,0-8.1-0.9c-1.2-1.5-2.4-3-4.1-5.2c0-0.4,0-1.9,0-3.3  c4.7-7.2,11.7-9.5,20.2-8.9c0.8-0.9,1.8-2,2.7-3.1c-0.4-0.4-0.8-0.8-1.6-1.6c-2.2,0.3-4.9-0.7-7.4,0.5c-1.8,0.8-4.3,0.3-5,2.7  c-12.8,1.7-23.7-1.5-32.5-10.9c1.6-3.8,5.1-5,8.2-4.8c8.1,0.4,15-2.8,21.8-6.3c3.7-1.9,7.3-2.9,11.5-3.2c5.3-0.4,9.9-3.1,14.3-6  c1.9-1.3,0.4-3.8,2.4-4.8c-0.8-2.9,1.3-5.4,1.2-8.2c2.2-2.2,4.4-4.4,6.7-6.7c0.9-3.9,1.8-7.9,2.7-12c1.6-1.6,3.4-3.2,4.9-4.9  c2.6-3.1,2.5-6.3,0-9.4c-0.7-0.9-1.5-1.9-2.5-2.4c-2.4-1.4-3.1-4.1-3.4-6.1c-0.5-2.7-1.5-5.3-1.6-8.2c-2.3-2.2-4.6-4.5-6.9-6.8  c0-2.8,0-5.5,0-8.3c2.6-2.4,5.1-4.9,4.6-9.2c-2.8-3.7-7.1-5.7-11.2-7.5c-5.7-2.5-10.5-5.9-14.8-10.4c-6.4-6.7-13.1-13.1-19.6-19.7  c-6.6-1.9-13.2-2-20.1,0.1c-1.9,1.9-4.1,4.1-6.5,6.5c-2.1-0.1-3.9,1.3-6.1,1.5c-4.3,0.4-7.8-1.7-11.7-2.8c-3-0.8-5.8-2.3-9-2  c-2.5,0.2-4.5-1.2-6.7-2c-5.7-2.1-5.7-2-11.8,0.7c-0.6,0.3-1.3,0.4-2,0.8c-3.6,2.1-7.3,3.7-12.2,2.5c-3-2.3-5.8-5.4-4.9-10.6  c2.7-3.8,6.5-6.7,10.4-9.2c5.8-3.9,12.2-4.2,18.8-1.1c4.2,2,8.3,4.2,12.6,5.9c4,1.5,7.6,2.1,11.7,0.4c4.2-1.7,8.5-3.1,11.8-7  c-2.6-3-5.4-4.8-9.1-6.1c-3.2-1.1-6.2-2.1-9.6-2.1c-3.3,0-6.2-1.8-9.3-2.7c-3-0.9-5.8-2.2-9.1-1.9c-3.2,0.3-5.7-2.5-8.9-2.3  c-6.1-3.7-12.9-2.4-19.3-2.1c-3.6,0.2-7.1,2.2-10.7,3.3c-7.8,2.3-13.1,1.1-18.7-4.4c-0.3-0.3-0.5-0.5-0.8-0.8c0-1.1,0-2.3,0-3.5  c5.1-5.9,12.5-7.9,19.2-10.8c2.3-1,5.3,0,8-0.2c6-0.3,11.7,0.5,17.2,3.2c2.5,1.2,5.6,2,8.7,1.5c1.5-0.2,3.1,0.1,4.6-0.1  c5.3-0.5,10.2,1.2,15,2.9c1.9,0.7,3.1,0.8,4.4-0.7c0.9-1.2,0-2.6,0.3-3.4c-1-3-3-4.8-4.8-6.6c-2.6-2.6-5.2-5.2-7.8-7.8  c-2.7-2.8-5.8-5.2-6.3-9.6c-0.2-1.4-1.3-2.9-2.7-4.1c-1.8-1.5-3.3-3.2-4.8-4.7c-0.9-4.1-1.7-8-2.6-11.9c-1.6-1.6-3.1-3.4-4.9-4.9  c-1.5-1.2-2.7-3.1-2.9-4.6c-0.4-3.6-2.7-5.6-4.9-7.9c-2.2-2.3-4.3-4.4-4.7-7.9c-0.3-2-2.2-3.8-3.8-5.3c-2.6-2.4-5-4.8-5.5-8.8  c-0.5-3.9-4.4-5.4-7.3-7.2c-5-3.1-10.6-5-16.2-7.1c-1-0.4-2.3-0.2-3.4-0.2c-4.8,0-9.7-0.3-14.5,0.1c-5.4,0.4-10.2-1.3-15.1-2.8  c-2.1-0.6-3.9-2.1-6.2-1.9c-3.2,0.3-6.2-0.5-9.1-1.8c-3.6-1.7-7.5-3.1-10.2-6.9c0.3-1.9-1.3-3.6-1.5-5.9c-0.2-2.4,1.6-4.2,1.3-6.5  c2-2.7,4.7-4.5,7.8-5.8c5.1-2.2,9.7-5.3,15.1-7.1c1.5-0.5,2.9-0.6,4.3-0.7c6.1-0.3,11.1-3,15.8-6.6c1.4-1,2.6-2.3,3.7-3.7  c3.7-4.5,9.1-5.8,14-8.1c1-0.4,2.3-0.2,3.4-0.2c6.2,0,12.4,0.2,18.5-0.1c3.9-0.2,7.4,0.9,10.6,2.5c7,3.6,14.1,7.1,21.1,10.6  c3.7,1.8,6.7,4.4,7.4,9c0.3,1.7,1.4,3.3,2.8,4.6c1.7,1.6,3.3,3.3,4.4,4.4c2.5,4.2,2.1,8.2,1.9,12.1c-0.1,1.8,2.1,2.9,1.3,4.6  c2.4,2.4,4.7,4.7,6.6,6.6c1,4.5,1.9,8.4,2.8,12.6c2,2,4.2,4.1,6.3,6.2c1.9,4,1.3,8.4,3.8,13.2c11,11,22.9,22.9,34.8,34.8  c3.4,3.5,7.3,6.1,11.7,8.2c6.8,3.2,13.2,7.3,20.6,9.2c1.2,0.3,2.5,0.8,3.7,0.7c3.7-0.4,6.9,1.2,10,2.5c4.3,1.8,8.2,4.4,12.4,6.4  c3.9,1.8,7.9,3.3,11.9,4.9c0.3,0.1,0.8,0.1,1.1,0.1c6-0.9,10.9,2.8,16.4,3.7c0.7,0.1,1.5,1.1,2.5,0.9c4.8-0.6,8.9,1.7,13.2,3  c2.6,0.8,5.1,1.9,8,1.7c3.7-0.3,6.9,1.9,10.4,2.9c2.8,0.8,5.5,2,8.6,1.7c3.6-0.3,6.5,2.1,9.8,2.9c2.8,0.7,5.5,2,8.5,1.8  c3-0.3,5.8,1.1,8.3,2.4c19.3,9.9,38.6,19.6,58.1,29c1.8,0.9,3.5,2,4.9,3.6c4.1,4.9,9.2,8.7,15,11.2c1.9,0.8,3.1,2.2,4.3,3.6  c3.9,4.3,8.5,7.7,13.8,10.1c1.9,0.8,3.1,2.1,4.4,3.4c9.6,9.5,19.1,19.1,28.4,28.4c2.3,5.4,1.8,10.8,1.5,16c-0.3,5.4,1.1,10.2,3,15  c1.2,3.2,1.9,6.3,1.8,9.7c-0.2,5-0.4,10.1,0.1,15.1c0.4,4.8-1.6,9-2.9,13.4c-0.6,2-1.7,3.9-2,6.1c-0.3,2.1-1.9,3.9-3.6,5.4  c-2.8,2.5-5.5,5.1-5.8,9.2c0,0.5-0.6,1.5-0.9,1.9c-4.4,4.6-8.9,9-13.4,13.5c-6.4,2.3-11.9,6.6-18.5,8.4c-1,0.3-2,0.9-3.1,0.8  c-5.3-0.4-9.9,2.1-14.6,4c-3.5,1.4-6.5,3.6-10.3,4.7c-1.5,0.4-2.9,0.6-4.3,0.6c-10.8,0.1-21.6,0.3-32.4-0.1  c-5.5-0.2-10.6,1.1-15.6,3c-3,1.1-5.9,2-9.1,1.8c-4.2-0.2-8.5,0.3-12.7-0.1c-5.4-0.5-10.3,1-15.1,2.9c-3.2,1.3-6.3,1.9-9.7,1.8  c-2.9-0.1-5.8,0-8.7,0c-11.3,0-11.3-0.1-22.1,3.9c-1.3,0.5-2.5,0.7-3.8,0.7c-5,0.1-10.1,0.4-15.1-0.1c-5-0.4-9.7,0.7-14,2.6  c-3.4,1.5-6.8,2.2-10.2,3.3c-1.2,0.4-1.8,1.2-2.4,2.1c0.3,3.6,4.2,1.8,5.5,3.7c5.4-0.5,7.7,3.7,11.1,6.8c-2.3,3.6-5.5,4.8-9.1,4.8  c-8.1,0.1-16.2,0-24.3,0c-3.4,0-6.3-1.7-9.3-2.7c-3-0.9-5.8-2.3-9-2c-1.7,0.2-2.8-2.1-4.7-1.2c-4-4-7.9-8-12.1-12.1  c0-2.6,0-5.4,0-8.3c2.8-2.8,5.8-5.5,8.5-8.6c3.7-4.2,8.4-5.8,13.4-5.8C216.5,426.8,217.3,426.3,218.5,425.5z M344.7,402  c2.4,0.5,4.1-1.7,6.6-1.2c2.4,0.5,5,0.1,7.5,0.1c2.2,0,4.3-0.2,6.5-1c5.1-1.9,10.2-4.4,15.9-3.6c0.2,0,0.4,0,0.6-0.1  c7-2.7,14.1-5.5,20.2-9.9c1.1-0.8,2.2-1.8,2.4-3.6c0.5-3.6,1.6-7,2.5-10.5c2.2-2.2,4.4-4.4,5.6-5.6c3.1-6,2.5-11.1,0.8-16.3  c-3.1-3.1-6.2-6.6-9.7-9.6c-4.6-4-9.9-6.7-16.2-7c-1.7-0.1-3.2-0.6-4.8-0.9c-2.9-0.6-5.6-1.6-8.2-2.7c-5-2.1-8.6-0.6-11.8,3  c0.1,4.8,0.1,4.8,6.9,11.6c0,2.7,0,5.4,0,8.2c-1.7,1.7-3.4,3.7-5.4,5.2c-1.5,1.1-2.4,2.9-2.6,4.2c-0.9,5.3-4.2,7.7-8.6,9.8  c-3.5,1.6-6.7,3.8-9.4,6.7c-3.9,4.1-7.9,7.9-11.8,11.9c-2,2-4.1,3.4-6.8,4.6c-6.9,3.1-11.4,8.8-14.5,15.3c0.4,1.1,1.2,1,1.6,0.8  c3.2-1.6,6.6-1,10-1.1c5.3-0.1,10.6,0.7,15.9-1.4C340,406.7,342.2,404.5,344.7,402z M300.1,359.1c-2.9-3.1-5.3-5.6-7.6-8  c-2.7-0.2-4.9,0.4-6.8,2.1c-1.9,1.9-3.9,3.7-5.7,5.7c-0.9,1.1-1.7,2.4-1.9,3.8c-0.4,2.8-1.9,4.7-3.8,6.5c-8.1,8-16.1,16-23.9,23.8  c0,1.9,0,3.6,0,5.3c1.5-0.3,2.1,1.1,3.1,1.3c5.1-2.1,10.3-3.7,14.5-3.6c4.2-0.9,5.8-3.3,7.7-5.2c-0.2-3.1,1.5-5,3.4-6.9  c5.9-5.8,11.7-11.7,17.6-17.5C298.9,364.4,300.4,362,300.1,359.1z"
   style="fill:#000000;fill-opacity:1;stroke:none" />
</svg>
