<?xml version="1.0" encoding="UTF-8" standalone="no"?>
<svg
   xmlns:dc="http://purl.org/dc/elements/1.1/"
   xmlns:cc="http://creativecommons.org/ns#"
   xmlns:rdf="http://www.w3.org/1999/02/22-rdf-syntax-ns#"
   xmlns:svg="http://www.w3.org/2000/svg"
   xmlns="http://www.w3.org/2000/svg"
   xmlns:sodipodi="http://sodipodi.sourceforge.net/DTD/sodipodi-0.dtd"
   xmlns:inkscape="http://www.inkscape.org/namespaces/inkscape"
   version="1.1"
   id="Layer_1"
   x="0px"
   y="0px"
   viewBox="0 0 512 512"
   style="enable-background:new 0 0 512 512;"
   xml:space="preserve"
   sodipodi:docname="Velox.svg"
   inkscape:export-filename="C:\Users\marvi\Documents\GitHub\StarflightHDRP\Assets\Art\Textures\Personnel\Velox.png"
   inkscape:export-xdpi="96"
   inkscape:export-ydpi="96"
   inkscape:version="1.0.2 (e86c870879, 2021-01-15, custom)"><metadata
   id="metadata2622"><rdf:RDF><cc:Work
       rdf:about=""><dc:format>image/svg+xml</dc:format><dc:type
         rdf:resource="http://purl.org/dc/dcmitype/StillImage" /></cc:Work></rdf:RDF></metadata><defs
   id="defs2620" /><sodipodi:namedview
   pagecolor="#ffffff"
   bordercolor="#666666"
   borderopacity="1"
   objecttolerance="10"
   gridtolerance="10"
   guidetolerance="10"
   inkscape:pageopacity="0"
   inkscape:pageshadow="2"
   inkscape:window-width="3440"
   inkscape:window-height="1387"
   id="namedview2618"
   showgrid="false"
   inkscape:zoom="1.96875"
   inkscape:cx="256"
   inkscape:cy="256"
   inkscape:window-x="-8"
   inkscape:window-y="-8"
   inkscape:window-maximized="1"
   inkscape:current-layer="Layer_1" />
<g
   id="Veloxi"
   style="fill:#000000;fill-opacity:1;stroke:none">
	<path
   d="m 455.2,225 c -3.1,1 -4.8,3.4 -6.4,4.9 -4.9,2.4 -9.6,2 -14.3,1.7 -2.5,-0.1 -4.6,1.3 -7.2,1.3 -2.2,2.3 -4.4,4.6 -6.2,6.5 -3.5,0.8 -6.4,1.5 -9.4,1.7 -4,0.3 -6.9,3.2 -8.9,5.8 -1.2,5.1 -3.8,8.1 -7.8,10.2 -5.9,3.1 -11.6,6.4 -17.6,9.2 -4.1,1.9 -7.7,4.2 -10.9,7.6 0,2.4 0.1,4.9 0,7.3 -0.2,2.6 -1,4.6 -3.8,6 -14.1,6.9 -28.1,14 -42.2,21 -4.2,2.1 -8.5,3 -13.2,1 -1.2,-0.5 -2.3,-1 -3.3,-1.9 -2.6,-2.6 -5.1,-5.3 -7.8,-7.7 -2.6,-2.3 -3.7,-5.2 -3.6,-8.3 0.1,-2.2 -2.1,-3.7 -1.3,-6 -4.4,-4 -9.2,-8 -8.1,-14.9 -4.9,-9 -11.9,-8.3 -16.3,0.1 0.8,2.6 -1.1,5 -1.2,8.2 -1.4,1.4 -3,3.1 -4.8,4.5 -2.3,1.8 -2.8,4.4 -3.1,6.8 -0.5,3.8 -1.3,7.1 -4.2,9.9 -1.5,1.5 -2.3,3.8 -1.6,6.4 2.9,3.4 7.1,5.5 11.2,7.3 5.3,2.4 10.1,5.2 13.9,9.7 3.7,4.3 8.9,6.3 13.7,8.9 4.9,2.6 10,4.7 15,7.1 1.8,0.9 3.4,2.1 4.9,3.6 9.2,9.3 18.5,18.6 27.9,28 0,1.8 0,3.7 0,5.4 -1.9,1.9 -3.8,3.8 -5.2,5.2 -1.4,6.5 -1.4,6.5 -0.3,12 1.1,1 2.5,2.7 4.2,3.8 2.3,1.5 1.9,4.4 3.6,6.1 -0.7,2.9 1.3,5.4 1.2,8.2 1.9,1.9 3.8,3.8 5.8,5.7 0,1.9 0,3.8 0,6 -0.6,0.5 -1.4,1 -1.9,1.8 -2.3,3.5 -2.1,6.3 0.7,9.4 2,2.3 4.3,4.4 6.5,6.4 3.2,1.6 6.7,0.9 10,1.3 3,0.4 6.2,1.1 8.1,4.5 -3,4.6 -7.5,6.7 -12.8,6.9 -6.2,0.2 -12.3,0 -18.5,0.1 -3.2,0 -6.1,-0.7 -8.9,-2.3 -2.8,-1.6 -5.7,-3 -8.7,-4.2 -3,-1.2 -4.6,-3.8 -6.7,-5.6 -0.4,-3.2 -1.5,-5.8 -2.7,-8.4 -1.3,-2.7 -2.5,-5.4 -2,-8.4 0.7,-4.8 -1.2,-9.3 -1.2,-14 0,-4.6 -0.1,-9.3 0.1,-13.9 0.1,-2.2 -1,-4.6 1.1,-6.5 -0.8,-3.5 -0.7,-7.4 -3.4,-10.1 -5.2,-5.4 -10.7,-10.6 -15.9,-16 -1,-1 -2.7,-0.5 -3.3,-2 -2.3,0 -4.6,0 -6.9,0 -2.3,2.8 -2.1,2.7 -0.8,5.1 1.4,2.5 3.4,4.5 5.4,6.4 4.5,4.5 8.8,9.3 13.6,13.4 3.7,3.2 4.9,7.4 5.3,11.7 0.4,4.4 0.6,8.9 -0.8,13.4 -0.9,3 -2,5.4 -4.1,7.6 -1.9,2 -4.3,3.5 -4.7,6.8 -0.1,0.9 -0.6,2.1 -0.7,3.1 0,2.9 0,5.8 0,8.7 0,3.4 -0.9,6.5 -3.6,8.9 -1.6,1.4 -3.1,2.9 -4.5,4.4 1,2.2 -1.4,3.4 -1.1,5.5 0.3,1.9 0.1,3.8 0.1,5.8 1.3,2.9 2.9,5.5 6.3,6.5 3.8,0.4 7.8,-0.4 11.6,1.7 0.9,0.7 2,1.7 3,2.5 -0.2,0.7 -0.2,1.1 -0.4,1.4 -3.7,4.5 -8.5,6.2 -14.2,6.1 -5.6,-0.1 -11.2,0 -16.8,0 -6.3,0 -11.7,-2.7 -16.3,-6.6 -4.1,-3.5 -7.7,-7.5 -11.4,-11.2 0,-2.9 0,-5.6 0,-8.2 1.8,-1.8 3.5,-3.7 5.4,-5.3 1.3,-1.2 2.4,-2.9 2.5,-4.1 0.3,-3.6 2.5,-5.8 4.9,-7.8 3,-2.6 4.7,-5.8 4.5,-9.7 -0.1,-2 2.4,-3.2 1.1,-5.2 2.5,-2.5 4.8,-4.8 7.1,-7.1 -0.4,-2.3 1.3,-4.1 1.2,-6.5 -0.1,-7.8 -1,-10.2 -8,-13.7 -4.5,-2.2 -8.3,-4.9 -11.4,-8.6 -1.9,-2.2 -4.7,-3.1 -6.5,-5.3 -6,-1.5 -9.6,-6.2 -13.9,-10.5 -1.9,0.6 -3.3,-1.5 -5.5,-1.3 -1.9,0.1 -3.2,2.1 -5,1.2 -6.8,6.8 -13.3,13.3 -19.9,19.9 -1.3,5.6 -1.3,5.6 -0.1,11.6 1.9,1.9 4.2,4.2 6.4,6.4 2,4 1.6,8.2 1.4,12.3 -0.2,2.9 1,5.5 1.3,8.4 2.2,2.1 4.6,4.3 6.8,6.4 0,3 0,5.7 0,8.5 -2.3,2.2 -4.6,4.4 -6.8,6.6 0.2,2.7 -1.9,4.7 -1.2,7.3 0.6,2.4 -2.2,4.4 -0.7,7.4 0.8,0.8 2,2 3.5,3.5 3.6,-0.2 6.6,1.2 9,4.6 -2.9,4.7 -7.5,6.9 -12.8,7 -9.4,0.2 -18.9,0 -28.3,0.1 -2.3,0 -4.4,-0.8 -6.2,-1.7 -2.1,-1.1 -3.1,-3.4 -3.8,-5.8 -0.9,-3.5 -5,-6.3 -8.8,-6.3 -6,0 -12,0.1 -17.9,0 -3.4,-0.1 -6.5,-1 -9,-3.9 0,-2.7 0,-5.5 0,-8.3 3.1,-3.1 6.1,-6 9,-9.1 2.9,-3 6.3,-5.5 8.2,-9.6 0,-0.9 0,-2 0,-3.2 -1,-1.2 -2.5,-2.7 -3.8,-1.6 -1.5,1.3 -3.4,1.4 -5,2 -9.1,3.8 -17.8,8.3 -26.5,12.8 -3,1.5 -6.3,2.9 -10,2.5 -3.6,-0.4 -6.6,1.8 -9.9,2.7 -3,0.8 -5.8,2.1 -9,2 -3.5,-0.2 -6.5,2 -9.8,2.9 -3,0.8 -5.9,1.8 -9.1,1.7 -8.7,-0.2 -17.4,-0.2 -26,0 -3.9,0.1 -7.2,-1.2 -10.6,-2.5 -3.5,-1.4 -6.6,-3.6 -10,-5.2 -3.1,-1.4 -5.9,-3 -7.9,-5.8 0,-2.7 0,-5.4 0,-7.8 3.2,-5 8.7,-6.3 13.3,-8.7 10.2,-5.4 20.8,-10.2 31.3,-15.2 2.1,-1 3.7,-2.9 6,-3.8 2.5,-1 2.8,-3.9 3.5,-6 0.9,-2.5 -0.2,-5.6 1.3,-8.2 1.4,-1.3 2.8,-2.7 4.1,-4 2,-2 3.7,-3.9 4.2,-7 0.3,-2.1 1.9,-3.9 3.6,-5.4 2.7,-2.5 5.5,-5 5.8,-9.2 0.2,-2.3 2.4,-3.7 4,-5.3 2.3,-2.4 4.8,-4.5 5.1,-8.3 0.2,-1.5 1.6,-3.2 3,-4.5 4.1,-3.8 7.9,-7.9 11.9,-11.8 1.5,-1.5 3,-3.2 3.2,-5 0.4,-3.4 2.4,-5.3 4.5,-7.4 2.3,-2.4 4.7,-4.6 5.1,-8.3 0.2,-1.4 1.6,-3.2 3,-4.5 4.1,-3.8 7.9,-7.9 11.9,-11.8 1.5,-1.5 3,-3.2 3.2,-5 0.4,-3.4 2.4,-5.3 4.5,-7.4 4.3,-4.4 8.7,-8.7 12.5,-12.5 1.7,-4.3 1.3,-8.2 2.6,-12 1.8,-1.7 3.5,-3.5 5.4,-5.1 2,-1.7 2.7,-4.3 2.7,-6.3 0.1,-2.5 1.8,-4.6 1.4,-7.1 1.4,-1.3 2.7,-2.7 4.1,-4.1 2,-2 3.8,-3.9 4.1,-7 0.2,-1.7 1.3,-3.3 2.8,-4.6 1.9,-1.6 3.6,-3.4 5.3,-5 -0.5,-2.5 1.8,-4 1.1,-6.2 -0.7,-2 2.1,-3.2 0.8,-5.5 1.6,-1.5 3.2,-2.9 4.7,-4.4 1.9,-1.8 3.3,-3.8 3.8,-6.5 0.5,-2.4 2.2,-4.2 3.9,-5.9 2.5,-2.4 5.1,-4.7 5.5,-8.7 0.2,-1.4 1.6,-3.2 3,-4.5 4.1,-3.8 7.9,-7.9 12,-11.8 1.4,-1.3 2.9,-3.1 3,-4.5 0.4,-3.8 2.8,-6 5.1,-8.4 2.7,-2.7 5.5,-5.5 8.4,-8.4 1.8,0.8 3.1,-1.1 5,-1.2 4.2,-0.4 8,1.1 11.6,2.8 4.3,2 8.3,4.6 13.3,4.2 0.2,0 0.3,-0.2 0.5,-0.3 0.5,-0.7 1.1,-1.3 1.5,-2.2 1.5,-3.6 3.6,-6.8 6.6,-9.4 4.5,-4 4.3,-9.2 3.2,-14.4 -0.5,-2.3 -1.4,-4.5 -3.6,-6.1 -1.6,-1.1 -2.8,-2.6 -3.3,-3.1 -2.1,-4.6 -1.4,-8.6 -3.9,-12.8 -1.5,-1.5 -3.8,-3.8 -5.9,-5.9 0,-3.1 0,-5.8 0,-8.8 4.3,-4.3 8.7,-8.7 13.2,-13.2 2,-2 3.6,-4 4.2,-7 0.4,-2.4 2,-4.5 4.6,-5.8 3.2,-1.6 4.9,-4.5 4.5,-8.2 -0.3,-2.5 0.9,-4.7 1.5,-8.1 0.8,-0.7 2.3,-2.2 4,-3.5 1.8,-1.4 2.8,-3.4 3.8,-5.4 2.3,-4.5 2.3,-4.6 6.9,-7.1 3.6,1.4 7.2,2.6 11.4,2.3 9.4,-6.8 20,-9.5 32.5,-7.6 3.3,1.7 6.7,4.4 7.2,9.4 -0.7,0.6 -1.2,1.1 -2,1.8 -5.7,0 -11.6,0 -17.6,0 -3.9,0 -3.9,0.1 -8.9,2.3 -4.6,2 -9.1,4.3 -13.3,6.9 -1.2,0.7 -2,1.7 -3,2.6 -3.6,3.5 -7.1,7.1 -10.7,10.6 -0.2,4 -0.2,4 1.3,6.3 2.9,1.1 5.4,-0.5 7.8,-1.6 9.5,-4.5 18.9,-9.3 28.9,-14.4 3.1,-0.1 6.5,0.4 9.6,3 1.2,1 3,1.9 5.1,1.7 2.9,-0.3 5.8,-0.1 8.7,-0.1 3.6,1.9 7.2,3.9 10.8,5.8 5.4,2.8 6,3.3 9.7,8.6 1.3,1.9 3.1,3.7 5.2,4 3.1,0.5 5.2,2.5 7.9,3.3 4.1,1.2 6.3,4.4 9.1,6.8 -0.5,2 -2.1,2.6 -3.1,4 -2.5,-0.5 -5,0.1 -7.7,-0.7 -5.1,-1.5 -8.7,-4.5 -11.4,-9 -1.4,-2.3 -3.7,-3.4 -6.2,-4.3 -7.2,-2.7 -13.9,-6.6 -20.7,-10.1 -0.5,-0.3 -0.8,-0.8 -1.4,-1.3 -2.1,0 -4.4,0 -6.9,0 -3.4,1.8 -6.9,3.6 -11.1,3.3 -3.2,-0.2 -6.1,0.7 -8.9,2.3 -2.8,1.6 -5.7,3 -8.7,4.2 -3.2,1.3 -5.9,3.1 -8.1,6 0.9,3.4 4.4,4.7 6.9,5.8 3.4,1.5 7,3.1 11.1,2.6 3.4,-0.4 6.3,1.6 9.3,2.6 3.2,1 6.3,1.5 9.5,2.2 6.5,1.4 13.1,3 16.7,9.8 1,1.9 1,4.3 2.4,5.9 2,2.3 4.3,4.4 6.5,6.6 0.9,3.9 1.7,7.8 2.6,11.9 1.2,1.2 2.5,2.5 3.9,3.9 2,2 3.8,3.9 4.1,7 0.2,1.7 1.3,3.3 2.8,4.6 1.8,1.5 3.3,3.2 5.1,5 0,2.5 0,5.2 0,8.2 -1.3,2.8 -4.6,3.9 -7.1,3.9 -5.7,0.1 -10.5,2.8 -15.7,4.2 -3.2,0.8 -6.3,1 -9.3,0.1 -3.6,-1 -7.1,-2.4 -10.6,-3.7 -0.5,-0.2 -1,-0.5 -1.6,-0.4 -6,0.9 -10.9,-2.8 -16.4,-3.6 -0.2,0 -0.3,-0.4 -0.4,-0.4 -5.1,-0.4 -10,-2.1 -15,-2.9 -2.5,-0.4 -4.7,0.6 -6.5,2.4 -2,2 -4,4.2 -6.2,6.1 -2.1,1.8 -2.2,4.5 -3.2,6.8 -1.6,3.9 -2.1,7.9 -0.5,12.2 2.1,5.6 1.9,10.9 0,16.9 -0.9,2.8 -1,5.4 -1.1,8.2 0.9,1.1 2.1,1.9 2.6,3.6 0.3,1.2 1.6,2.1 2.4,2.9 2.4,-0.8 3.7,1.3 5.7,1.1 1.8,-0.2 3.5,0.3 5.4,0.9 4.8,1.6 9.1,3.6 12.6,7.4 3.1,3.3 6.6,4.2 11.1,2.4 2.5,-1 5.1,-1.8 8,-1.6 4.2,0.3 8.1,-1.8 11.8,-3.5 4.7,-2.2 9.2,-4.7 14.3,-6 4,-1 7.7,-2.9 11.6,-4 2.9,-0.8 5,-2.1 7,-4.1 1.5,-1.5 3,-3 4.5,-4.5 2.3,-2.4 4.5,-4.6 5.1,-8.4 0.6,-3.9 4.6,-5.6 7.7,-7.5 3.3,-2.1 7.1,-3.4 10.5,-5.2 2.4,-1.3 4.9,-0.2 7.3,-0.8 3.7,2.9 6.3,7 10.6,9.3 1.8,0.9 2,3 3,4.5 1,1.5 1.2,3.5 2.7,4.6 4.3,1 7.8,-0.9 11.4,-2.8 4.1,-2.2 8.4,-4.4 13.4,-3.9 1.6,0.2 3.1,0.3 4.8,1 3.7,1.7 7.8,2.5 11.6,4.2 2.2,1 5.1,1.9 4.7,5.8 -2.7,2.6 -5.3,5.9 -9.7,8 1,0.7 1.7,1.3 2.6,1.9 2.6,-1.9 5.6,-1.1 9,-1.2 0.5,0.9 1.2,2.1 1.9,3.3 0.2,-0.2 0.5,-0.4 0.7,-0.6 0,1.1 0,2.2 0,4 -0.7,0.5 -1.8,1.2 -3.6,2.5 -2,0 -5,0 -8.1,0 -2.5,1.6 -4.7,3.8 -7.4,4.6 -4.3,1.4 -8.9,2.4 -13.5,0.2 -2.2,-1.7 -5,-2.1 -8,-1.5 z m -111.5,20.6 c -1.9,0 -4.2,-0.6 -6,0.2 -1.8,0.8 -3.8,1.6 -5.5,1.9 -3.4,0.7 -6.3,2.9 -10,2.6 -4.3,-0.3 -6.8,2.3 -8.4,5.9 -1.5,3.5 0.5,6.3 2.4,9 1,1.4 2.4,2.5 3.6,3.7 3.5,3.7 7.4,5.1 12.3,0.2 5.3,-5.3 10.6,-10.6 15.7,-15.6 0,-2 0,-3.7 0,-5.4 -1.4,-0.9 -2.6,-1.6 -4.1,-2.5 z M 468,213.2 c 0.6,-0.9 1.3,-1.4 1.5,-2.1 0.5,-2 -1.2,-3.3 -1.8,-4.8 -2,0 -3.9,0 -5.7,0 -2.3,1.5 -1.9,3.5 -1.5,5.4 0.6,0.6 1,1 1.4,1.4 1.9,0.1 3.9,0.1 6.1,0.1 z"
   id="path2610"
   style="fill:#000000;fill-opacity:1;stroke:none" />
	<path
   d="m 387.5,54.7 c -10.5,0.6 -18.1,-3.8 -24.3,-11 -0.3,-1.3 0.7,-1.8 1.5,-2.7 5.4,-0.6 11.1,-0.7 15.7,2.8 3.1,2.5 6.9,5.3 7.1,10.9 z"
   id="path2612"
   style="fill:#000000;fill-opacity:1;stroke:none" />
	<path
   d="m 403.5,59.9 c -0.9,0.6 -2.1,1.5 -4.1,2.9 -0.2,0 -1.7,0 -2.4,0 -2.2,-2.2 -4.1,-4.1 -6.2,-6.2 -0.1,-0.6 1.1,-0.9 1.6,-1.8 2.6,0 5.2,0 8.2,0 1.1,1.2 3.4,2 2.9,5.1 z"
   id="path2614"
   style="fill:#000000;fill-opacity:1;stroke:none" />
</g>
</svg>
