<?xml version="1.0" encoding="UTF-8" standalone="no"?>
<svg
   xmlns:dc="http://purl.org/dc/elements/1.1/"
   xmlns:cc="http://creativecommons.org/ns#"
   xmlns:rdf="http://www.w3.org/1999/02/22-rdf-syntax-ns#"
   xmlns:svg="http://www.w3.org/2000/svg"
   xmlns="http://www.w3.org/2000/svg"
   xmlns:xlink="http://www.w3.org/1999/xlink"
   xmlns:sodipodi="http://sodipodi.sourceforge.net/DTD/sodipodi-0.dtd"
   xmlns:inkscape="http://www.inkscape.org/namespaces/inkscape"
   id="Layer_1"
   data-name="Layer 1"
   width="1370"
   height="430"
   viewBox="0 0 1370 430.00001"
   version="1.1"
   sodipodi:docname="BinarySystems.svg"
   inkscape:version="1.0.2 (e86c870879, 2021-01-15, custom)"
   inkscape:label="BinarySystems">
  <metadata
     id="metadata98">
    <rdf:RDF>
      <cc:Work
         rdf:about="">
        <dc:format>image/svg+xml</dc:format>
        <dc:type
           rdf:resource="http://purl.org/dc/dcmitype/StillImage" />
        <dc:title></dc:title>
      </cc:Work>
    </rdf:RDF>
  </metadata>
  <sodipodi:namedview
     pagecolor="#ffffff"
     bordercolor="#666666"
     borderopacity="1"
     objecttolerance="10"
     gridtolerance="10"
     guidetolerance="10"
     inkscape:pageopacity="0"
     inkscape:pageshadow="2"
     inkscape:window-width="2139"
     inkscape:window-height="1269"
     id="namedview96"
     showgrid="false"
     inkscape:zoom="1.0754946"
     inkscape:cx="678.37407"
     inkscape:cy="283.59574"
     inkscape:window-x="315"
     inkscape:window-y="40"
     inkscape:window-maximized="0"
     inkscape:current-layer="Layer_1" />
  <defs
     id="defs57">
    <style
       id="style55">
      .cls-1 {
        fill: #fff;
      }

      .cls-2, .cls-3 {
        fill: none;
      }

      .cls-2 {
        stroke: #a91e22;
        stroke-linecap: square;
        stroke-miterlimit: 10;
        stroke-width: 10px;
      }
    </style>
  </defs>
  <g
     id="Binary"
     inkscape:label="Binary"
     inkscape:export-filename="C:\Users\marvi\Documents\GitHub\StarflightHDRP\Assets\Art\Textures\BinarySystems\BinarySystemsCenter.png"
     inkscape:export-xdpi="96"
     inkscape:export-ydpi="96">
    <path
       class="cls-1"
       d="m 213.24,281.57 a 5.92,5.92 0 0 1 -1.79,-4.36 v -43.52 a 6.11,6.11 0 0 1 6.14,-6.14 h 76.67 a 17,17 0 0 1 6.72,1.34 18.2,18.2 0 0 1 5.51,3.65 16.84,16.84 0 0 1 5.05,12.16 15.9,15.9 0 0 1 -1.09,6 17.89,17.89 0 0 1 -2.88,4.93 18,18 0 0 1 2.88,4.93 15.63,15.63 0 0 1 1.09,5.82 16.54,16.54 0 0 1 -1.34,6.62 17.08,17.08 0 0 1 -3.71,5.38 18,18 0 0 1 -5.49,3.62 16.81,16.81 0 0 1 -6.72,1.35 h -76.69 a 5.92,5.92 0 0 1 -4.35,-1.78 z m 10.49,-41.73 v 9.47 h 71.17 a 4.81,4.81 0 0 0 3.33,-1.28 4.28,4.28 0 0 0 1.41,-3.33 5,5 0 0 0 -4.87,-4.86 z m 0,31.23 h 71 a 4.79,4.79 0 0 0 3.4,-1.41 4.46,4.46 0 0 0 1.47,-3.33 4.41,4.41 0 0 0 -1.47,-3.39 4.94,4.94 0 0 0 -3.4,-1.34 h -71 z"
       transform="translate(5)"
       id="path61" />
    <path
       class="cls-1"
       d="m 334.84,281.57 a 6.15,6.15 0 0 1 -10.5,-4.36 v -43.52 a 6.15,6.15 0 1 1 12.29,0 v 43.52 a 6,6 0 0 1 -1.79,4.36 z"
       transform="translate(5)"
       id="path63" />
    <path
       class="cls-1"
       d="m 438.39,229.34 a 6.14,6.14 0 0 1 10.49,4.35 v 37.25 a 12.08,12.08 0 0 1 -3.52,8.83 11.78,11.78 0 0 1 -8.76,3.59 12.33,12.33 0 0 1 -3.52,-0.51 12.12,12.12 0 0 1 -3.14,-1.41 L 371.32,245.6 c -1.63,-0.94 -3,-1.69 -4,-2.24 a 6,6 0 0 0 -2.62,-0.83 q -1.92,0 -2.43,2.43 a 36.65,36.65 0 0 0 -0.51,7 v 25.21 a 6.15,6.15 0 1 1 -12.29,0 V 240 a 12.12,12.12 0 0 1 3.52,-8.84 11.81,11.81 0 0 1 8.77,-3.58 12.44,12.44 0 0 1 3.52,0.51 12.21,12.21 0 0 1 3.13,1.41 L 427,265.31 q 2.43,1.41 4,2.24 a 6,6 0 0 0 2.62,0.83 q 1.92,0 2.43,-2.43 a 36.49,36.49 0 0 0 0.52,-7 v -25.26 a 5.92,5.92 0 0 1 1.82,-4.35 z"
       transform="translate(5)"
       id="path65" />
    <path
       class="cls-1"
       d="m 472.56,281.05 a 6.11,6.11 0 0 1 -10.88,-3.84 5.33,5.33 0 0 1 1.32,-3.71 l 31.11,-41.85 a 16.22,16.22 0 0 1 5.76,-4.8 16.44,16.44 0 0 1 7.68,-1.86 16.7,16.7 0 0 1 7.29,1.66 15,15 0 0 1 5.64,4.61 l 31.1,41.6 a 8.79,8.79 0 0 1 1.28,2 5.47,5.47 0 0 1 0.51,2.36 6.11,6.11 0 0 1 -6.14,6.15 5.74,5.74 0 0 1 -4.87,-2.43 L 512.5,241.12 a 27.71,27.71 0 0 0 -2.24,-2.24 3.71,3.71 0 0 0 -5.5,0 16.9,16.9 0 0 0 -2.12,2.24 z"
       transform="translate(5)"
       id="path67" />
    <path
       class="cls-1"
       d="m 655.48,266.27 c 2.38,1.66 4.82,3.48 7.29,5.44 a 11.39,11.39 0 0 1 2.43,2.37 5,5 0 0 1 1,3.13 6.11,6.11 0 0 1 -6.15,6.15 6.88,6.88 0 0 1 -4.35,-1.79 q -5.25,-3.84 -10.75,-7.43 a 97.2,97.2 0 0 0 -11.46,-6.4 70.3,70.3 0 0 0 -12.35,-4.48 52.65,52.65 0 0 0 -13.31,-1.66 h -25.44 a 4.66,4.66 0 0 0 -2.82,1.53 4.61,4.61 0 0 0 -1.15,3.2 v 10.88 a 5.84,5.84 0 0 1 -1.86,4.36 6.11,6.11 0 0 1 -10.43,-4.36 v -12.28 a 15.46,15.46 0 0 1 1.22,-6.08 16.2,16.2 0 0 1 3.26,-5 15.09,15.09 0 0 1 4.87,-3.32 15.3,15.3 0 0 1 6.14,-1.22 h 67.84 a 4.9,4.9 0 0 0 3.39,-1.34 4.57,4.57 0 0 0 0,-6.72 4.75,4.75 0 0 0 -3.39,-1.41 h -77.18 a 6.15,6.15 0 1 1 0,-12.29 H 649 a 17,17 0 0 1 6.72,1.34 18.15,18.15 0 0 1 5.5,3.65 16.76,16.76 0 0 1 3.71,5.38 17.08,17.08 0 0 1 0,13.31 16.76,16.76 0 0 1 -3.71,5.38 17.94,17.94 0 0 1 -5.5,3.64 16.81,16.81 0 0 1 -6.72,1.35 h -0.51 q 3.4,2.17 6.99,4.67 z"
       transform="translate(5)"
       id="path69" />
    <path
       class="cls-1"
       d="m 734.83,281.57 a 6.14,6.14 0 0 1 -10.49,-4.36 V 261.6 a 35.29,35.29 0 0 1 -9.47,-1.28 46.18,46.18 0 0 1 -9.67,-4 88.79,88.79 0 0 1 -10.81,-7.11 q -5.76,-4.35 -12.93,-10.62 a 7.79,7.79 0 0 1 -1.73,-2.18 5.48,5.48 0 0 1 -0.7,-2.69 6.11,6.11 0 0 1 6.14,-6.14 5.08,5.08 0 0 1 2.3,0.51 13,13 0 0 1 2,1.28 q 8.19,7.17 13.76,11.2 a 54.52,54.52 0 0 0 10,6 29.35,29.35 0 0 0 8.38,2.37 80.08,80.08 0 0 0 9,0.45 q 5,0 8.83,-0.38 a 27.23,27.23 0 0 0 8.19,-2.31 56,56 0 0 0 9.92,-6 q 5.58,-4 13.89,-11.33 a 6.88,6.88 0 0 1 4.35,-1.79 6.11,6.11 0 0 1 6.15,6.14 5.49,5.49 0 0 1 -0.71,2.69 7.94,7.94 0 0 1 -1.72,2.18 q -7.05,6.13 -12.93,10.56 a 87.39,87.39 0 0 1 -11.07,7.17 48.85,48.85 0 0 1 -9.86,4 34.25,34.25 0 0 1 -9,1.28 v 15.61 a 5.93,5.93 0 0 1 -1.82,4.36 z"
       transform="translate(5)"
       id="path71" />
  </g>
  <g
     id="Systems"
     inkscape:label="Systems"
     inkscape:export-filename="C:\Users\marvi\Documents\GitHub\StarflightHDRP\Assets\Art\Textures\BinarySystems\BinarySystemsCenter.png"
     inkscape:export-xdpi="96"
     inkscape:export-ydpi="96">
    <path
       class="cls-1"
       d="m 491.69,359.23 a 17.28,17.28 0 0 1 -9,-9 17.2,17.2 0 0 1 0,-13.31 17.43,17.43 0 0 1 3.65,-5.37 17.25,17.25 0 0 1 5.38,-3.65 16.33,16.33 0 0 1 6.65,-1.34 H 576 a 6.14,6.14 0 1 1 0,12.28 h -77.91 a 4.86,4.86 0 0 0 -3.39,1.35 4.35,4.35 0 0 0 -1.48,3.39 4.44,4.44 0 0 0 1.48,3.33 4.74,4.74 0 0 0 3.39,1.4 h 70.78 a 16.81,16.81 0 0 1 6.72,1.35 17,17 0 0 1 9.09,9.09 16.8,16.8 0 0 1 1.34,6.72 16.3,16.3 0 0 1 -1.34,6.65 17.42,17.42 0 0 1 -3.65,5.38 16.3,16.3 0 0 1 -5.44,3.58 17.48,17.48 0 0 1 -6.72,1.28 H 491.3 a 6.14,6.14 0 1 1 0,-12.28 h 78.08 a 4.65,4.65 0 0 0 3.33,-1.35 4.32,4.32 0 0 0 1.41,-3.26 4.7,4.7 0 0 0 -1.41,-3.46 4.55,4.55 0 0 0 -3.33,-1.41 h -71 a 16.33,16.33 0 0 1 -6.69,-1.37 z"
       transform="translate(5)"
       id="path75" />
    <path
       class="cls-1"
       d="m 654.63,380.54 a 6.14,6.14 0 0 1 -10.49,-4.35 v -15.62 a 35,35 0 0 1 -9.48,-1.28 45.8,45.8 0 0 1 -9.66,-4 87.51,87.51 0 0 1 -10.82,-7.1 q -5.76,-4.35 -12.92,-10.63 a 7.74,7.74 0 0 1 -1.73,-2.17 5.49,5.49 0 0 1 -0.71,-2.69 6.13,6.13 0 0 1 6.15,-6.14 5.08,5.08 0 0 1 2.3,0.51 12.77,12.77 0 0 1 2.05,1.28 q 8.19,7.17 13.76,11.2 a 55.39,55.39 0 0 0 10,6 29.5,29.5 0 0 0 8.39,2.37 80.25,80.25 0 0 0 9,0.44 c 3.33,0 6.27,-0.12 8.83,-0.38 a 27.19,27.19 0 0 0 8.19,-2.3 56.08,56.08 0 0 0 9.92,-6 q 5.56,-4 13.89,-11.32 a 6.82,6.82 0 0 1 4.35,-1.79 6.13,6.13 0 0 1 6.15,6.14 5.49,5.49 0 0 1 -0.71,2.69 7.74,7.74 0 0 1 -1.73,2.17 q -7,6.15 -12.92,10.56 a 84.62,84.62 0 0 1 -11.08,7.17 48,48 0 0 1 -9.85,4 33.92,33.92 0 0 1 -9,1.28 v 15.62 a 5.89,5.89 0 0 1 -1.88,4.34 z"
       transform="translate(5)"
       id="path77" />
    <path
       class="cls-1"
       d="m 724.9,359.23 a 17.3,17.3 0 0 1 -9,-9 17.08,17.08 0 0 1 0,-13.31 17.33,17.33 0 0 1 9,-9 16.38,16.38 0 0 1 6.66,-1.34 h 77.69 a 6.14,6.14 0 1 1 0,12.28 h -78 a 4.86,4.86 0 0 0 -3.39,1.35 4.38,4.38 0 0 0 -1.47,3.39 4.46,4.46 0 0 0 1.47,3.33 4.74,4.74 0 0 0 3.39,1.4 h 70.79 a 16.88,16.88 0 0 1 6.72,1.35 16.89,16.89 0 0 1 9.08,9.09 16.81,16.81 0 0 1 1.35,6.72 16.3,16.3 0 0 1 -1.35,6.65 17.39,17.39 0 0 1 -3.64,5.38 16.4,16.4 0 0 1 -5.44,3.58 17.55,17.55 0 0 1 -6.72,1.28 h -77.52 a 6.14,6.14 0 1 1 0,-12.28 h 78.08 a 4.65,4.65 0 0 0 3.33,-1.35 4.35,4.35 0 0 0 1.4,-3.26 4.73,4.73 0 0 0 -1.4,-3.46 4.55,4.55 0 0 0 -3.33,-1.41 h -71 a 16.38,16.38 0 0 1 -6.7,-1.39 z"
       transform="translate(5)"
       id="path79" />
    <path
       class="cls-1"
       d="m 930.6,328.32 a 6.14,6.14 0 0 1 -4.35,10.49 h -37.89 v 37.38 a 6.15,6.15 0 1 1 -12.29,0 v -37.38 h -38.4 a 6.34,6.34 0 0 1 -4,-2 5.77,5.77 0 0 1 -1.66,-4.16 6.11,6.11 0 0 1 6.14,-6.14 h 88.07 a 5.92,5.92 0 0 1 4.38,1.81 z"
       transform="translate(5)"
       id="path81" />
    <path
       class="cls-1"
       d="m 945.19,332.67 a 6.11,6.11 0 0 1 6.14,-6.14 h 90.76 a 6.14,6.14 0 1 1 0,12.28 h -90.76 a 6.11,6.11 0 0 1 -6.14,-6.14 z m 15.61,49.66 a 14.14,14.14 0 0 1 -5.63,-1.21 15.88,15.88 0 0 1 -5,-3.39 17.67,17.67 0 0 1 -3.58,-5.25 16.38,16.38 0 0 1 -1.41,-6.91 v -11.52 q 0,-3.46 2,-4.61 c 1.33,-0.77 3.39,-1.16 6.21,-1.16 h 85.89 a 6.15,6.15 0 1 1 0,12.29 h -81.8 v 6.27 a 2.89,2.89 0 0 0 1.08,2.24 4.17,4.17 0 0 0 2.88,1 h 80.65 a 6.14,6.14 0 1 1 0,12.28 z"
       transform="translate(5)"
       id="path83" />
    <path
       class="cls-1"
       d="m 1169.06,376.19 a 6.15,6.15 0 1 1 -12.29,0 v -27.91 c 0,-3.49 -0.21,-5.24 -0.64,-5.24 -0.43,0 -1.53,1.15 -3.58,3.45 l -28.16,32 a 10.4,10.4 0 0 1 -4.1,2.88 14.81,14.81 0 0 1 -10.49,0 10.33,10.33 0 0 1 -4.1,-2.88 l -28.16,-32 c -2,-2.3 -3.16,-3.45 -3.58,-3.45 -0.42,0 -0.64,1.75 -0.64,5.24 v 27.91 a 6.15,6.15 0 1 1 -12.29,0 v -37.38 a 13.28,13.28 0 0 1 2.94,-8.7 9.87,9.87 0 0 1 8.07,-3.58 10.1,10.1 0 0 1 5.5,1.53 23.44,23.44 0 0 1 4.48,3.71 l 29.44,33.54 a 13.89,13.89 0 0 0 1.6,1.34 3.13,3.13 0 0 0 4,0 13.89,13.89 0 0 0 1.6,-1.34 l 29.31,-33.54 h 0.13 a 13.3,13.3 0 0 1 4.35,-3.84 11.47,11.47 0 0 1 5.63,-1.4 9.9,9.9 0 0 1 8.07,3.58 13.28,13.28 0 0 1 2.94,8.7 z"
       transform="translate(5)"
       id="path85" />
    <path
       class="cls-1"
       d="m 1192.23,359.23 a 17.28,17.28 0 0 1 -9,-9 17.2,17.2 0 0 1 0,-13.31 17.3,17.3 0 0 1 9,-9 16.3,16.3 0 0 1 6.65,-1.34 h 77.7 a 6.14,6.14 0 1 1 0,12.28 h -77.95 a 4.89,4.89 0 0 0 -3.4,1.35 4.38,4.38 0 0 0 -1.47,3.39 4.46,4.46 0 0 0 1.47,3.33 4.77,4.77 0 0 0 3.4,1.4 h 70.78 a 16.81,16.81 0 0 1 6.72,1.35 17,17 0 0 1 9.09,9.09 17,17 0 0 1 1.34,6.72 16.46,16.46 0 0 1 -1.34,6.65 17.42,17.42 0 0 1 -3.65,5.38 16.4,16.4 0 0 1 -5.44,3.58 17.48,17.48 0 0 1 -6.72,1.28 h -77.57 a 6.14,6.14 0 1 1 0,-12.28 h 78.08 a 4.65,4.65 0 0 0 3.33,-1.35 4.32,4.32 0 0 0 1.41,-3.26 4.7,4.7 0 0 0 -1.41,-3.46 4.55,4.55 0 0 0 -3.33,-1.41 h -71 a 16.3,16.3 0 0 1 -6.69,-1.39 z"
       transform="translate(5)"
       id="path87" />
  </g>
  <polyline
     class="cls-2"
     points="5 305.99 87.26 305.99 87.26 227.55 189.79 227.55 189.79 305.99 1365.17 305.99"
     id="CenterLine"
     inkscape:label="CenterLine"
     transform="matrix(0.99987618,0,0,1.0176389,0,-6.4755372)"
     style="display:inline"
     inkscape:export-filename="C:\Users\marvi\Documents\GitHub\StarflightHDRP\Assets\Art\Textures\BinarySystems\BinarySystemsCenter.png"
     inkscape:export-xdpi="96"
     inkscape:export-ydpi="96" />
  <rect
     id="LeftLine"
     data-name="&lt;Slice&gt;"
     class="cls-3"
     x="0"
     width="40"
     height="430"
     inkscape:label="LeftLine"
     y="0"
     style="stroke-width:0.960884"
     inkscape:export-filename="C:\Users\marvi\Documents\GitHub\StarflightHDRP\Assets\Art\Textures\BinarySystems\BinarySystemsLeft.png"
     inkscape:export-xdpi="96"
     inkscape:export-ydpi="96" />
  <rect
     id="RightLine"
     data-name="&lt;Slice&gt;"
     class="cls-3"
     x="1330"
     width="40"
     height="430"
     inkscape:label="RightLine"
     y="0"
     style="stroke-width:0.960883"
     inkscape:export-filename="C:\Users\marvi\Documents\GitHub\StarflightHDRP\Assets\Art\Textures\BinarySystems\BinarySystemsRight.png"
     inkscape:export-xdpi="96"
     inkscape:export-ydpi="96" />
  <image
     sodipodi:absref="C:\Users\marvi\Documents\GitHub\StarflightHDRP\ArtSource\BinarySystems\LensFlare.png"
     xlink:href="LensFlare.png"
     inkscape:export-ydpi="96"
     inkscape:export-xdpi="96"
     inkscape:export-filename="C:\Users\marvi\Documents\GitHub\StarflightHDRP\Assets\Art\Textures\BinarySystems\BinarySystemsCenter.png"
     inkscape:label="LensFlare"
     inkscape:svg-dpi="1"
     y="0"
     x="910"
     id="LensFlare"
     preserveAspectRatio="xMidYMid"
     height="430"
     width="430" />
</svg>
