<?xml version="1.0" encoding="UTF-8" standalone="no"?>
<svg
   xmlns:dc="http://purl.org/dc/elements/1.1/"
   xmlns:cc="http://creativecommons.org/ns#"
   xmlns:rdf="http://www.w3.org/1999/02/22-rdf-syntax-ns#"
   xmlns:svg="http://www.w3.org/2000/svg"
   xmlns="http://www.w3.org/2000/svg"
   xmlns:sodipodi="http://sodipodi.sourceforge.net/DTD/sodipodi-0.dtd"
   xmlns:inkscape="http://www.inkscape.org/namespaces/inkscape"
   version="1.1"
   id="Layer_1"
   x="0px"
   y="0px"
   viewBox="0 0 460.00001 179.99999"
   xml:space="preserve"
   sodipodi:docname="ElectronicArts.svg"
   width="460"
   height="180"
   inkscape:export-filename="C:\Users\marvi\Documents\GitHub\StarflightHDRP\Assets\Art\Textures\ElectronicArts\ElectronicArts.png"
   inkscape:export-xdpi="96"
   inkscape:export-ydpi="96"
   inkscape:version="1.0.2 (e86c870879, 2021-01-15, custom)"><metadata
   id="metadata106"><rdf:RDF><cc:Work
       rdf:about=""><dc:format>image/svg+xml</dc:format><dc:type
         rdf:resource="http://purl.org/dc/dcmitype/StillImage" /><dc:title></dc:title></cc:Work></rdf:RDF></metadata><defs
   id="defs104" /><sodipodi:namedview
   pagecolor="#ffffff"
   bordercolor="#666666"
   borderopacity="1"
   objecttolerance="10"
   gridtolerance="10"
   guidetolerance="10"
   inkscape:pageopacity="0"
   inkscape:pageshadow="2"
   inkscape:window-width="2495"
   inkscape:window-height="1176"
   id="namedview102"
   showgrid="false"
   inkscape:zoom="1.5742746"
   inkscape:cx="230.9"
   inkscape:cy="82.55"
   inkscape:window-x="103"
   inkscape:window-y="60"
   inkscape:window-maximized="0"
   inkscape:current-layer="Layer_1" />
<style
   type="text/css"
   id="style59">
	.st0{fill:#FFFFFF;fill-opacity:0;}
	.st1{fill:#0490C7;}
</style>
<g
   id="EA"
   inkscape:label="EA"
   transform="translate(-15.35,5.2)">
	
	<polygon
   class="st1"
   points="193,9.2 193,12.3 77.1,12.3 77.1,14.7 28.9,14.7 29.2,9.2 "
   id="polygon63" />
	<polygon
   class="st1"
   points="192.7,22.2 192.7,26.7 77.1,26.7 77.1,29.1 28.9,29.1 28.9,22.2 "
   id="polygon65" />
	<path
   class="st1"
   d="m 28.9,36.3 h 160.7 l 3.1,2.4 0.3,-2.1 h 124.8 l 3.1,3.8 h -80.7 c 0,0 -37.3,7.2 -41.4,6.5 -3.1,-0.3 -16.1,-0.3 -16.1,-0.3 0,0 1.7,-3.8 3.8,-6.2 H 77.1 v 3.1 H 28.9 Z"
   id="path67" />
	<path
   class="st1"
   d="m 28.9,49.9 h 152.2 c 0,0 3.8,2.1 9.6,2.4 2.7,0 2.4,-2.4 2.4,-2.4 h 198.4 l 5.8,9.2 H 375 l -0.7,-3.8 h -44.8 l 0.7,2.1 c 0,0 -11.3,-4.1 -17.4,-2.7 -0.3,0 -67.7,0 -67.7,0 -7.9,0 -21.2,1.7 -38,5.8 h -30.8 l 2.1,-5.1 H 77.1 v 3.1 H 28.9 Z"
   id="path69" />
	<path
   class="st1"
   d="m 211.5,17.8 c 0,0 9.2,-6.8 17.8,-8.2 h 49.9 l 6.2,2.7 c 0,0 -26,-0.7 -31.5,0.7 -7.5,2 -25.3,4.1 -25.3,4.1 z"
   id="path71" />
	<path
   class="st1"
   d="m 192.7,33.5 c 0,0 3.1,-4.4 10.9,-10.6 h 100.5 l 4.1,3.8 -67.4,0.7 c -10.3,0 -16.4,4.1 -30.8,5.5 -1.2,-0.1 -17.3,0.6 -17.3,0.6 z"
   id="path73" />
	<path
   class="st1"
   d="m 400.6,65 6.2,9.9 h -28 l -1,-3.8 h -43.4 c 0,0 0.7,2.7 0.3,2.7 -7.5,-1.7 -15,-2.1 -15,-2.1 L 321.4,69 H 252 c 0,0 -15.4,1 -28.7,3.8 -13.7,2.7 -27,3.1 -27,3.1 H 173 l 0.7,-5.1 H 77.1 v 3.8 H 28.9 V 64.3 h 146 c 0,0 3.8,2.7 14,2.4 5.1,0 3.8,-1.7 3.8,-1.7 z"
   id="path75" />
	<path
   class="st1"
   d="m 171.8,90.6 h 35.6 c 0,0 10.3,-1 23.6,-3.4 14,-2.7 22.6,-2.7 22.6,-2.7 h 58.8 l -2.1,3.4 c 0,0 6.8,-0.7 25.3,2.4 0.3,0 0,-3.8 0,-3.8 h 45.5 l 1,3.4 H 416 L 409.8,79.6 H 193 c 0,0 0.3,1.7 -3.4,1.7 -15.4,0.7 -17.1,-2.7 -17.1,-2.7 H 28.9 v 10.9 h 48.2 v -3.8 h 94.7 z"
   id="path77" />
	<path
   class="st1"
   d="m 418.4,94 6.2,10.6 h -39 l -1,-3.1 h -49.9 l -0.3,2.4 c 0,0 -9.9,0.7 -14.4,-0.3 -9.9,-2.4 -17.8,-1 -17.8,-1 l 1.7,-3.1 h -38 c 0,0 -10.9,-0.3 -22.9,2.1 -14,2.7 -28,3.4 -28,3.4 h -41 l -0.7,-3.8 H 77.1 v 2.7 H 28.9 V 93.7 h 142.9 c 0,0 1.4,3.4 18.1,2.4 3.4,0 2.7,-2.1 2.7,-2.1 z"
   id="path79" />
	<polygon
   class="st1"
   points="383.5,36.6 339.7,36.6 337,41 370.9,41 371.5,43.8 388,43.8 "
   id="polygon81" />
	<polygon
   class="st1"
   points="375.6,23.6 347.3,23.6 345.2,27.4 367.4,27.4 368.1,29.8 379.1,29.8 "
   id="polygon83" />
	<polygon
   class="st1"
   points="365,15 370.5,15.7 361.6,0 363.7,9.9 355.1,9.9 353.1,12.7 364,12.7 "
   id="polygon85" />
	<path
   class="st1"
   d="m 193,108.4 h 234.3 l 7.2,11.6 H 389 l -0.7,-3.1 h -58.1 l -1,3.4 c -9.6,-1.7 -19.2,-2.1 -19.2,-2.1 h -16.8 l 1.7,-3.1 c 0,0 -10.3,-0.7 -25,1.4 -12.7,1.7 -50.3,3.1 -50.3,3.1 h -41 l -1.4,-2.7 H 77.1 V 120 H 28.9 v -12.3 h 145 c 0,0 4.1,3.8 16.4,2.7 3.1,0.7 2.7,-2 2.7,-2 z"
   id="path87" />
	<path
   class="st1"
   d="m 187.9,136.1 h 40 c 0,0 28,-1 32.1,-1.4 14.7,-1 25,-3.1 25,-3.1 l -1.7,3.1 c 0,0 15.7,-1 27,1.4 0.3,0 9.6,0 9.6,0 l 1.7,-2.4 h 70.5 l 0.7,2.4 H 444 l -7.9,-12.3 H 193 c 0,0 0.3,1.7 -1.7,1.7 -10.6,0 -11.3,-2.4 -11.3,-2.4 H 28.9 v 12.3 h 48.2 v -2.1 h 108.8 z"
   id="path89" />
	<path
   class="st1"
   d="m 445.8,138.8 7.9,13 h -57.5 l -0.3,-1.7 H 307 l -1.4,1 h -31.5 l 1.4,-2.4 c 0,0 -12.3,2.1 -25.6,2.7 -0.3,0 -47.5,0 -47.5,0 l -7.5,-7.2 -1.7,5.5 H 77.1 v 1.7 H 28.9 v -13 h 159.7 l 4.4,3.1 v -2.7 z"
   id="path91" />
	<path
   class="st1"
   d="m 207,154.9 c 0,0 16.1,14.7 47.9,14.7 16.8,0 22.9,-3.8 22.9,-3.8 h 184 l -6.2,-10.9 z"
   id="path93" />
	<polygon
   class="st1"
   points="193,154.9 193,166.5 28.9,166.5 28.9,154.9 "
   id="polygon95" />
	<polygon
   class="st1"
   points="193,142.6 195.8,145.7 194.7,149.8 193,149.8 "
   id="polygon97" />
</g>
</svg>
