<?xml version="1.0" encoding="UTF-8" standalone="no"?>
<svg
   xmlns:dc="http://purl.org/dc/elements/1.1/"
   xmlns:cc="http://creativecommons.org/ns#"
   xmlns:rdf="http://www.w3.org/1999/02/22-rdf-syntax-ns#"
   xmlns:svg="http://www.w3.org/2000/svg"
   xmlns="http://www.w3.org/2000/svg"
   xmlns:sodipodi="http://sodipodi.sourceforge.net/DTD/sodipodi-0.dtd"
   xmlns:inkscape="http://www.inkscape.org/namespaces/inkscape"
   id="Layer_1"
   data-name="Layer 1"
   width="1800"
   height="80"
   viewBox="0 0 1800.0001 80.000001"
   version="1.1"
   sodipodi:docname="Starflight.svg"
   inkscape:version="1.0.2 (e86c870879, 2021-01-15, custom)"
   inkscape:export-filename="C:\Users\marvi\Documents\GitHub\StarflightHDRP\Assets\Art\Textures\Starflight\Starflight.png"
   inkscape:export-xdpi="96"
   inkscape:export-ydpi="96">
  <metadata
     id="metadata178">
    <rdf:RDF>
      <cc:Work
         rdf:about="">
        <dc:format>image/svg+xml</dc:format>
        <dc:type
           rdf:resource="http://purl.org/dc/dcmitype/StillImage" />
        <dc:title></dc:title>
      </cc:Work>
    </rdf:RDF>
  </metadata>
  <sodipodi:namedview
     pagecolor="#ffffff"
     bordercolor="#666666"
     borderopacity="1"
     objecttolerance="10"
     gridtolerance="10"
     guidetolerance="10"
     inkscape:pageopacity="0"
     inkscape:pageshadow="2"
     inkscape:window-width="3440"
     inkscape:window-height="1387"
     id="namedview176"
     showgrid="false"
     inkscape:zoom="1.1717279"
     inkscape:cx="829.91004"
     inkscape:cy="29.211113"
     inkscape:window-x="-8"
     inkscape:window-y="-8"
     inkscape:window-maximized="1"
     inkscape:current-layer="Layer_1" />
  <defs
     id="defs151">
    <style
       id="style149">
      .cls-1 {
        fill: #231f20;
      }
    </style>
  </defs>
  <g
     id="Starflight"
     transform="translate(10.740874,3.3814796)"
     inkscape:label="Starflight"
     style="fill:#ffffff;fill-opacity:1">
    <path
       class="cls-1"
       d="m 295.36,67.6 a 21.59,21.59 0 0 1 -11.28,-11.28 21.44,21.44 0 0 1 0,-16.64 21.59,21.59 0 0 1 11.28,-11.28 20.55,20.55 0 0 1 8.32,-1.68 h 97.12 a 7.65,7.65 0 0 1 7.68,7.68 7.65,7.65 0 0 1 -7.68,7.68 h -97.44 a 6.11,6.11 0 0 0 -4.24,1.68 5.51,5.51 0 0 0 -1.84,4.24 5.59,5.59 0 0 0 1.84,4.16 6,6 0 0 0 4.24,1.76 h 88.48 a 21.07,21.07 0 0 1 8.4,1.68 21.16,21.16 0 0 1 11.36,11.4 21.07,21.07 0 0 1 1.68,8.4 20.52,20.52 0 0 1 -1.68,8.32 21.71,21.71 0 0 1 -4.6,6.68 20.24,20.24 0 0 1 -6.8,4.48 21.92,21.92 0 0 1 -8.4,1.6 H 38.4 a 7.68,7.68 0 1 1 0,-15.36 h 354.08 a 5.82,5.82 0 0 0 4.16,-1.68 5.41,5.41 0 0 0 1.76,-4.08 5.85,5.85 0 0 0 -1.76,-4.36 5.7,5.7 0 0 0 -4.16,-1.76 h -88.8 a 20.55,20.55 0 0 1 -8.32,-1.64 z"
       transform="translate(-30.72,-23.52)"
       id="path153"
       style="fill:#ffffff;fill-opacity:1" />
    <path
       class="cls-1"
       d="m 552.48,29 a 7.73,7.73 0 0 1 0,10.88 7.4,7.4 0 0 1 -5.48,2.2 H 499.68 V 88.8 a 7.68,7.68 0 1 1 -15.36,0 V 42.08 h -48 a 7.92,7.92 0 0 1 -5,-2.48 7.25,7.25 0 0 1 -2.08,-5.2 7.65,7.65 0 0 1 7.76,-7.68 h 110 a 7.4,7.4 0 0 1 5.48,2.28 z"
       transform="translate(-30.72,-23.52)"
       id="path155"
       style="fill:#ffffff;fill-opacity:1" />
    <path
       class="cls-1"
       d="m 564.32,93.6 a 7.63,7.63 0 0 1 -13.6,-4.8 6.61,6.61 0 0 1 1.6,-4.64 L 591.2,31.84 a 21.22,21.22 0 0 1 16.8,-8.32 20.85,20.85 0 0 1 9.12,2.08 18.69,18.69 0 0 1 7,5.76 l 38.88,52 a 11.31,11.31 0 0 1 1.6,2.48 6.85,6.85 0 0 1 0.64,3 7.65,7.65 0 0 1 -7.68,7.68 7.14,7.14 0 0 1 -6.08,-3 L 614.24,43.68 a 35,35 0 0 0 -2.8,-2.8 4.65,4.65 0 0 0 -6.88,0 20.5,20.5 0 0 0 -2.64,2.8 z"
       transform="translate(-30.72,-23.52)"
       id="path157"
       style="fill:#ffffff;fill-opacity:1" />
    <path
       class="cls-1"
       d="m 793,75.12 q 4.49,3.12 9.12,6.8 a 14.73,14.73 0 0 1 3,3 6.31,6.31 0 0 1 1.28,3.92 7.65,7.65 0 0 1 -7.68,7.68 8.54,8.54 0 0 1 -5.44,-2.24 Q 786.72,89.48 779.84,85 A 122.92,122.92 0 0 0 765.52,77 87.61,87.61 0 0 0 750.08,71.4 66.15,66.15 0 0 0 733.44,69.32 H 701.6 a 5.82,5.82 0 0 0 -5,5.92 V 88.8 a 7.25,7.25 0 0 1 -2.32,5.44 7.46,7.46 0 0 1 -5.28,2.24 7.65,7.65 0 0 1 -7.68,-7.68 V 73.44 a 19.42,19.42 0 0 1 1.52,-7.6 20,20 0 0 1 4.08,-6.24 18.63,18.63 0 0 1 6.08,-4.16 19.25,19.25 0 0 1 7.68,-1.52 h 84.8 a 6.11,6.11 0 0 0 4.24,-1.68 5.48,5.48 0 0 0 1.8,-4.24 5.55,5.55 0 0 0 -1.84,-4.16 6,6 0 0 0 -4.24,-1.76 H 689 A 7.65,7.65 0 0 1 681.32,34.4 7.65,7.65 0 0 1 689,26.72 h 95.8 a 21.07,21.07 0 0 1 8.4,1.68 22.45,22.45 0 0 1 6.88,4.6 21.11,21.11 0 0 1 4.64,6.72 21.44,21.44 0 0 1 0,16.64 21.11,21.11 0 0 1 -4.64,6.64 22.45,22.45 0 0 1 -6.88,4.56 21.07,21.07 0 0 1 -8.4,1.68 h -0.64 q 4.32,2.76 8.84,5.88 z"
       transform="translate(-30.72,-23.52)"
       id="path159"
       style="fill:#ffffff;fill-opacity:1" />
    <path
       class="cls-1"
       d="m 822.4,34.4 a 7.65,7.65 0 0 1 7.68,-7.68 h 113.44 a 7.65,7.65 0 0 1 7.68,7.68 7.65,7.65 0 0 1 -7.68,7.68 H 830.08 A 7.65,7.65 0 0 1 822.4,34.4 Z m 0,26.72 c 0,-2.88 0.82,-4.8 2.48,-5.76 1.66,-0.96 4.24,-1.44 7.76,-1.44 H 940 a 7.68,7.68 0 1 1 0,15.36 H 837.76 V 88.8 a 7.68,7.68 0 1 1 -15.36,0 z"
       transform="translate(-30.72,-23.52)"
       id="path161"
       style="fill:#ffffff;fill-opacity:1" />
    <path
       class="cls-1"
       d="M 980.64,94.8 A 22,22 0 0 1 969,83.52 19.62,19.62 0 0 1 967.24,75.2 V 34.4 a 7.65,7.65 0 0 1 7.68,-7.68 7.52,7.52 0 0 1 5.32,2.28 7.3,7.3 0 0 1 2.32,5.44 V 75.2 a 5.55,5.55 0 0 0 1.84,4.16 6,6 0 0 0 4.24,1.76 h 96 a 7.68,7.68 0 1 1 0,15.36 h -95.52 a 21.64,21.64 0 0 1 -8.48,-1.68 z"
       transform="translate(-30.72,-23.52)"
       id="path163"
       style="fill:#ffffff;fill-opacity:1" />
    <path
       class="cls-1"
       d="M 1121.44,94.24 A 7.68,7.68 0 0 1 1108.32,88.8 V 34.4 a 7.68,7.68 0 1 1 15.36,0 v 54.4 a 7.4,7.4 0 0 1 -2.24,5.44 z"
       transform="translate(-30.72,-23.52)"
       id="path165"
       style="fill:#ffffff;fill-opacity:1" />
    <path
       class="cls-1"
       d="m 1181.92,61.6 a 7.65,7.65 0 0 1 7.68,-7.68 h 61.28 a 18.86,18.86 0 0 1 7.52,1.52 19.64,19.64 0 0 1 6.16,4.16 18.36,18.36 0 0 1 4.08,6.24 20.3,20.3 0 0 1 1.44,7.6 V 77 a 20.26,20.26 0 0 1 -1.44,7.6 18.36,18.36 0 0 1 -4.08,6.24 19.64,19.64 0 0 1 -6.16,4.16 18.69,18.69 0 0 1 -7.52,1.52 h -83.36 a 21.58,21.58 0 0 1 -11.68,-3.2 30.39,30.39 0 0 1 -8.72,-8.24 39,39 0 0 1 -5.52,-11.28 41.22,41.22 0 0 1 -1.92,-12.16 39.29,39.29 0 0 1 2,-12.24 37.39,37.39 0 0 1 5.84,-11.2 31.8,31.8 0 0 1 9.28,-8.24 23.85,23.85 0 0 1 12.32,-3.2 h 93.28 a 7.65,7.65 0 0 1 7.68,7.68 7.65,7.65 0 0 1 -7.68,7.68 h -89.76 a 17.89,17.89 0 0 0 -9,2 16.56,16.56 0 0 0 -5.44,4.88 17,17 0 0 0 -2.72,6.32 31,31 0 0 0 -0.72,6.32 31,31 0 0 0 0.72,6.32 17,17 0 0 0 2.72,6.32 16.56,16.56 0 0 0 5.44,4.88 17.89,17.89 0 0 0 9,2 h 77.6 a 4.49,4.49 0 0 0 3.44,-1.76 6.17,6.17 0 0 0 1.52,-4.16 6.64,6.64 0 0 0 -1.36,-4.16 4.34,4.34 0 0 0 -3.6,-1.76 h -60.64 a 7.65,7.65 0 0 1 -7.68,-7.68 z"
       transform="translate(-30.72,-23.52)"
       id="path167"
       style="fill:#ffffff;fill-opacity:1" />
    <path
       class="cls-1"
       d="M 1409.12,94.24 A 7.68,7.68 0 0 1 1396,88.8 V 69.28 h -94.56 V 88.8 a 7.68,7.68 0 1 1 -15.36,0 V 34.4 a 7.68,7.68 0 1 1 15.36,0 V 53.92 H 1396 V 34.4 a 7.68,7.68 0 1 1 15.36,0 v 54.4 a 7.4,7.4 0 0 1 -2.24,5.44 z"
       transform="translate(-30.72,-23.52)"
       id="path169"
       style="fill:#ffffff;fill-opacity:1" />
    <path
       class="cls-1"
       d="m 1807,29 a 7.73,7.73 0 0 1 0,10.88 7.4,7.4 0 0 1 -5.44,2.24 H 1497.75 V 88.8 a 7.68,7.68 0 1 1 -15.35,0 V 42.08 h -48 a 7.89,7.89 0 0 1 -5,-2.48 7.21,7.21 0 0 1 -2.08,-5.2 7.65,7.65 0 0 1 7.67,-7.68 H 1801.6 A 7.4,7.4 0 0 1 1807,29 Z"
       transform="translate(-30.72,-23.52)"
       id="path171"
       style="fill:#ffffff;fill-opacity:1" />
  </g>
</svg>
